G04 #@! TF.GenerationSoftware,KiCad,Pcbnew,(5.1.7)-1*
G04 #@! TF.CreationDate,2021-04-20T15:22:48-07:00*
G04 #@! TF.ProjectId,EsperDNS,45737065-7244-44e5-932e-6b696361645f,rev?*
G04 #@! TF.SameCoordinates,Original*
G04 #@! TF.FileFunction,Soldermask,Top*
G04 #@! TF.FilePolarity,Negative*
%FSLAX46Y46*%
G04 Gerber Fmt 4.6, Leading zero omitted, Abs format (unit mm)*
G04 Created by KiCad (PCBNEW (5.1.7)-1) date 2021-04-20 15:22:48*
%MOMM*%
%LPD*%
G01*
G04 APERTURE LIST*
G04 #@! TA.AperFunction,Profile*
%ADD10C,0.100000*%
G04 #@! TD*
%ADD11R,1.000000X0.300000*%
%ADD12R,0.300000X1.000000*%
%ADD13R,3.400000X3.400000*%
%ADD14R,1.500000X1.900000*%
%ADD15C,1.450000*%
%ADD16R,0.400000X1.350000*%
%ADD17O,1.200000X1.900000*%
%ADD18R,1.200000X1.900000*%
%ADD19R,0.800000X0.900000*%
%ADD20R,5.000000X5.000000*%
%ADD21R,2.000000X0.900000*%
%ADD22R,0.900000X2.000000*%
%ADD23R,3.800000X2.000000*%
%ADD24R,1.500000X2.000000*%
%ADD25C,2.100000*%
%ADD26C,1.750000*%
%ADD27R,0.900000X0.800000*%
%ADD28R,1.900000X1.900000*%
%ADD29C,1.900000*%
%ADD30C,1.890000*%
%ADD31C,2.600000*%
%ADD32C,3.250000*%
%ADD33C,4.400000*%
%ADD34R,0.700000X1.300000*%
G04 APERTURE END LIST*
D10*
X-25500000Y-19050000D02*
G75*
G03*
X-20550000Y-24000000I4950000J0D01*
G01*
X20550000Y-24000000D02*
G75*
G03*
X25500000Y-19050000I0J4950000D01*
G01*
X25500000Y19050000D02*
G75*
G03*
X20550000Y24000000I-4950000J0D01*
G01*
X-20550000Y24000000D02*
G75*
G03*
X-25500000Y19050000I0J-4950000D01*
G01*
X25500000Y19050000D02*
X25500000Y-19050000D01*
X-20550000Y24000000D02*
X20550000Y24000000D01*
X-25500000Y19050000D02*
X-25500000Y-19050000D01*
X-20550000Y-24000000D02*
X20550000Y-24000000D01*
G36*
G01*
X9550000Y10200000D02*
X9550000Y11525000D01*
G75*
G02*
X9625000Y11600000I75000J0D01*
G01*
X9775000Y11600000D01*
G75*
G02*
X9850000Y11525000I0J-75000D01*
G01*
X9850000Y10200000D01*
G75*
G02*
X9775000Y10125000I-75000J0D01*
G01*
X9625000Y10125000D01*
G75*
G02*
X9550000Y10200000I0J75000D01*
G01*
G37*
G36*
G01*
X10050000Y10200000D02*
X10050000Y11525000D01*
G75*
G02*
X10125000Y11600000I75000J0D01*
G01*
X10275000Y11600000D01*
G75*
G02*
X10350000Y11525000I0J-75000D01*
G01*
X10350000Y10200000D01*
G75*
G02*
X10275000Y10125000I-75000J0D01*
G01*
X10125000Y10125000D01*
G75*
G02*
X10050000Y10200000I0J75000D01*
G01*
G37*
G36*
G01*
X10550000Y10200000D02*
X10550000Y11525000D01*
G75*
G02*
X10625000Y11600000I75000J0D01*
G01*
X10775000Y11600000D01*
G75*
G02*
X10850000Y11525000I0J-75000D01*
G01*
X10850000Y10200000D01*
G75*
G02*
X10775000Y10125000I-75000J0D01*
G01*
X10625000Y10125000D01*
G75*
G02*
X10550000Y10200000I0J75000D01*
G01*
G37*
G36*
G01*
X11050000Y10200000D02*
X11050000Y11525000D01*
G75*
G02*
X11125000Y11600000I75000J0D01*
G01*
X11275000Y11600000D01*
G75*
G02*
X11350000Y11525000I0J-75000D01*
G01*
X11350000Y10200000D01*
G75*
G02*
X11275000Y10125000I-75000J0D01*
G01*
X11125000Y10125000D01*
G75*
G02*
X11050000Y10200000I0J75000D01*
G01*
G37*
G36*
G01*
X11550000Y10200000D02*
X11550000Y11525000D01*
G75*
G02*
X11625000Y11600000I75000J0D01*
G01*
X11775000Y11600000D01*
G75*
G02*
X11850000Y11525000I0J-75000D01*
G01*
X11850000Y10200000D01*
G75*
G02*
X11775000Y10125000I-75000J0D01*
G01*
X11625000Y10125000D01*
G75*
G02*
X11550000Y10200000I0J75000D01*
G01*
G37*
G36*
G01*
X12050000Y10200000D02*
X12050000Y11525000D01*
G75*
G02*
X12125000Y11600000I75000J0D01*
G01*
X12275000Y11600000D01*
G75*
G02*
X12350000Y11525000I0J-75000D01*
G01*
X12350000Y10200000D01*
G75*
G02*
X12275000Y10125000I-75000J0D01*
G01*
X12125000Y10125000D01*
G75*
G02*
X12050000Y10200000I0J75000D01*
G01*
G37*
G36*
G01*
X12550000Y10200000D02*
X12550000Y11525000D01*
G75*
G02*
X12625000Y11600000I75000J0D01*
G01*
X12775000Y11600000D01*
G75*
G02*
X12850000Y11525000I0J-75000D01*
G01*
X12850000Y10200000D01*
G75*
G02*
X12775000Y10125000I-75000J0D01*
G01*
X12625000Y10125000D01*
G75*
G02*
X12550000Y10200000I0J75000D01*
G01*
G37*
G36*
G01*
X13050000Y10200000D02*
X13050000Y11525000D01*
G75*
G02*
X13125000Y11600000I75000J0D01*
G01*
X13275000Y11600000D01*
G75*
G02*
X13350000Y11525000I0J-75000D01*
G01*
X13350000Y10200000D01*
G75*
G02*
X13275000Y10125000I-75000J0D01*
G01*
X13125000Y10125000D01*
G75*
G02*
X13050000Y10200000I0J75000D01*
G01*
G37*
G36*
G01*
X13550000Y10200000D02*
X13550000Y11525000D01*
G75*
G02*
X13625000Y11600000I75000J0D01*
G01*
X13775000Y11600000D01*
G75*
G02*
X13850000Y11525000I0J-75000D01*
G01*
X13850000Y10200000D01*
G75*
G02*
X13775000Y10125000I-75000J0D01*
G01*
X13625000Y10125000D01*
G75*
G02*
X13550000Y10200000I0J75000D01*
G01*
G37*
G36*
G01*
X14050000Y10200000D02*
X14050000Y11525000D01*
G75*
G02*
X14125000Y11600000I75000J0D01*
G01*
X14275000Y11600000D01*
G75*
G02*
X14350000Y11525000I0J-75000D01*
G01*
X14350000Y10200000D01*
G75*
G02*
X14275000Y10125000I-75000J0D01*
G01*
X14125000Y10125000D01*
G75*
G02*
X14050000Y10200000I0J75000D01*
G01*
G37*
G36*
G01*
X14550000Y10200000D02*
X14550000Y11525000D01*
G75*
G02*
X14625000Y11600000I75000J0D01*
G01*
X14775000Y11600000D01*
G75*
G02*
X14850000Y11525000I0J-75000D01*
G01*
X14850000Y10200000D01*
G75*
G02*
X14775000Y10125000I-75000J0D01*
G01*
X14625000Y10125000D01*
G75*
G02*
X14550000Y10200000I0J75000D01*
G01*
G37*
G36*
G01*
X15050000Y10200000D02*
X15050000Y11525000D01*
G75*
G02*
X15125000Y11600000I75000J0D01*
G01*
X15275000Y11600000D01*
G75*
G02*
X15350000Y11525000I0J-75000D01*
G01*
X15350000Y10200000D01*
G75*
G02*
X15275000Y10125000I-75000J0D01*
G01*
X15125000Y10125000D01*
G75*
G02*
X15050000Y10200000I0J75000D01*
G01*
G37*
G36*
G01*
X15875000Y9375000D02*
X15875000Y9525000D01*
G75*
G02*
X15950000Y9600000I75000J0D01*
G01*
X17275000Y9600000D01*
G75*
G02*
X17350000Y9525000I0J-75000D01*
G01*
X17350000Y9375000D01*
G75*
G02*
X17275000Y9300000I-75000J0D01*
G01*
X15950000Y9300000D01*
G75*
G02*
X15875000Y9375000I0J75000D01*
G01*
G37*
G36*
G01*
X15875000Y8875000D02*
X15875000Y9025000D01*
G75*
G02*
X15950000Y9100000I75000J0D01*
G01*
X17275000Y9100000D01*
G75*
G02*
X17350000Y9025000I0J-75000D01*
G01*
X17350000Y8875000D01*
G75*
G02*
X17275000Y8800000I-75000J0D01*
G01*
X15950000Y8800000D01*
G75*
G02*
X15875000Y8875000I0J75000D01*
G01*
G37*
G36*
G01*
X15875000Y8375000D02*
X15875000Y8525000D01*
G75*
G02*
X15950000Y8600000I75000J0D01*
G01*
X17275000Y8600000D01*
G75*
G02*
X17350000Y8525000I0J-75000D01*
G01*
X17350000Y8375000D01*
G75*
G02*
X17275000Y8300000I-75000J0D01*
G01*
X15950000Y8300000D01*
G75*
G02*
X15875000Y8375000I0J75000D01*
G01*
G37*
G36*
G01*
X15875000Y7875000D02*
X15875000Y8025000D01*
G75*
G02*
X15950000Y8100000I75000J0D01*
G01*
X17275000Y8100000D01*
G75*
G02*
X17350000Y8025000I0J-75000D01*
G01*
X17350000Y7875000D01*
G75*
G02*
X17275000Y7800000I-75000J0D01*
G01*
X15950000Y7800000D01*
G75*
G02*
X15875000Y7875000I0J75000D01*
G01*
G37*
G36*
G01*
X15875000Y7375000D02*
X15875000Y7525000D01*
G75*
G02*
X15950000Y7600000I75000J0D01*
G01*
X17275000Y7600000D01*
G75*
G02*
X17350000Y7525000I0J-75000D01*
G01*
X17350000Y7375000D01*
G75*
G02*
X17275000Y7300000I-75000J0D01*
G01*
X15950000Y7300000D01*
G75*
G02*
X15875000Y7375000I0J75000D01*
G01*
G37*
G36*
G01*
X15875000Y6875000D02*
X15875000Y7025000D01*
G75*
G02*
X15950000Y7100000I75000J0D01*
G01*
X17275000Y7100000D01*
G75*
G02*
X17350000Y7025000I0J-75000D01*
G01*
X17350000Y6875000D01*
G75*
G02*
X17275000Y6800000I-75000J0D01*
G01*
X15950000Y6800000D01*
G75*
G02*
X15875000Y6875000I0J75000D01*
G01*
G37*
G36*
G01*
X15875000Y6375000D02*
X15875000Y6525000D01*
G75*
G02*
X15950000Y6600000I75000J0D01*
G01*
X17275000Y6600000D01*
G75*
G02*
X17350000Y6525000I0J-75000D01*
G01*
X17350000Y6375000D01*
G75*
G02*
X17275000Y6300000I-75000J0D01*
G01*
X15950000Y6300000D01*
G75*
G02*
X15875000Y6375000I0J75000D01*
G01*
G37*
G36*
G01*
X15875000Y5875000D02*
X15875000Y6025000D01*
G75*
G02*
X15950000Y6100000I75000J0D01*
G01*
X17275000Y6100000D01*
G75*
G02*
X17350000Y6025000I0J-75000D01*
G01*
X17350000Y5875000D01*
G75*
G02*
X17275000Y5800000I-75000J0D01*
G01*
X15950000Y5800000D01*
G75*
G02*
X15875000Y5875000I0J75000D01*
G01*
G37*
G36*
G01*
X15875000Y5375000D02*
X15875000Y5525000D01*
G75*
G02*
X15950000Y5600000I75000J0D01*
G01*
X17275000Y5600000D01*
G75*
G02*
X17350000Y5525000I0J-75000D01*
G01*
X17350000Y5375000D01*
G75*
G02*
X17275000Y5300000I-75000J0D01*
G01*
X15950000Y5300000D01*
G75*
G02*
X15875000Y5375000I0J75000D01*
G01*
G37*
G36*
G01*
X15875000Y4875000D02*
X15875000Y5025000D01*
G75*
G02*
X15950000Y5100000I75000J0D01*
G01*
X17275000Y5100000D01*
G75*
G02*
X17350000Y5025000I0J-75000D01*
G01*
X17350000Y4875000D01*
G75*
G02*
X17275000Y4800000I-75000J0D01*
G01*
X15950000Y4800000D01*
G75*
G02*
X15875000Y4875000I0J75000D01*
G01*
G37*
G36*
G01*
X15875000Y4375000D02*
X15875000Y4525000D01*
G75*
G02*
X15950000Y4600000I75000J0D01*
G01*
X17275000Y4600000D01*
G75*
G02*
X17350000Y4525000I0J-75000D01*
G01*
X17350000Y4375000D01*
G75*
G02*
X17275000Y4300000I-75000J0D01*
G01*
X15950000Y4300000D01*
G75*
G02*
X15875000Y4375000I0J75000D01*
G01*
G37*
G36*
G01*
X15875000Y3875000D02*
X15875000Y4025000D01*
G75*
G02*
X15950000Y4100000I75000J0D01*
G01*
X17275000Y4100000D01*
G75*
G02*
X17350000Y4025000I0J-75000D01*
G01*
X17350000Y3875000D01*
G75*
G02*
X17275000Y3800000I-75000J0D01*
G01*
X15950000Y3800000D01*
G75*
G02*
X15875000Y3875000I0J75000D01*
G01*
G37*
G36*
G01*
X15050000Y1875000D02*
X15050000Y3200000D01*
G75*
G02*
X15125000Y3275000I75000J0D01*
G01*
X15275000Y3275000D01*
G75*
G02*
X15350000Y3200000I0J-75000D01*
G01*
X15350000Y1875000D01*
G75*
G02*
X15275000Y1800000I-75000J0D01*
G01*
X15125000Y1800000D01*
G75*
G02*
X15050000Y1875000I0J75000D01*
G01*
G37*
G36*
G01*
X14550000Y1875000D02*
X14550000Y3200000D01*
G75*
G02*
X14625000Y3275000I75000J0D01*
G01*
X14775000Y3275000D01*
G75*
G02*
X14850000Y3200000I0J-75000D01*
G01*
X14850000Y1875000D01*
G75*
G02*
X14775000Y1800000I-75000J0D01*
G01*
X14625000Y1800000D01*
G75*
G02*
X14550000Y1875000I0J75000D01*
G01*
G37*
G36*
G01*
X14050000Y1875000D02*
X14050000Y3200000D01*
G75*
G02*
X14125000Y3275000I75000J0D01*
G01*
X14275000Y3275000D01*
G75*
G02*
X14350000Y3200000I0J-75000D01*
G01*
X14350000Y1875000D01*
G75*
G02*
X14275000Y1800000I-75000J0D01*
G01*
X14125000Y1800000D01*
G75*
G02*
X14050000Y1875000I0J75000D01*
G01*
G37*
G36*
G01*
X13550000Y1875000D02*
X13550000Y3200000D01*
G75*
G02*
X13625000Y3275000I75000J0D01*
G01*
X13775000Y3275000D01*
G75*
G02*
X13850000Y3200000I0J-75000D01*
G01*
X13850000Y1875000D01*
G75*
G02*
X13775000Y1800000I-75000J0D01*
G01*
X13625000Y1800000D01*
G75*
G02*
X13550000Y1875000I0J75000D01*
G01*
G37*
G36*
G01*
X13050000Y1875000D02*
X13050000Y3200000D01*
G75*
G02*
X13125000Y3275000I75000J0D01*
G01*
X13275000Y3275000D01*
G75*
G02*
X13350000Y3200000I0J-75000D01*
G01*
X13350000Y1875000D01*
G75*
G02*
X13275000Y1800000I-75000J0D01*
G01*
X13125000Y1800000D01*
G75*
G02*
X13050000Y1875000I0J75000D01*
G01*
G37*
G36*
G01*
X12550000Y1875000D02*
X12550000Y3200000D01*
G75*
G02*
X12625000Y3275000I75000J0D01*
G01*
X12775000Y3275000D01*
G75*
G02*
X12850000Y3200000I0J-75000D01*
G01*
X12850000Y1875000D01*
G75*
G02*
X12775000Y1800000I-75000J0D01*
G01*
X12625000Y1800000D01*
G75*
G02*
X12550000Y1875000I0J75000D01*
G01*
G37*
G36*
G01*
X12050000Y1875000D02*
X12050000Y3200000D01*
G75*
G02*
X12125000Y3275000I75000J0D01*
G01*
X12275000Y3275000D01*
G75*
G02*
X12350000Y3200000I0J-75000D01*
G01*
X12350000Y1875000D01*
G75*
G02*
X12275000Y1800000I-75000J0D01*
G01*
X12125000Y1800000D01*
G75*
G02*
X12050000Y1875000I0J75000D01*
G01*
G37*
G36*
G01*
X11550000Y1875000D02*
X11550000Y3200000D01*
G75*
G02*
X11625000Y3275000I75000J0D01*
G01*
X11775000Y3275000D01*
G75*
G02*
X11850000Y3200000I0J-75000D01*
G01*
X11850000Y1875000D01*
G75*
G02*
X11775000Y1800000I-75000J0D01*
G01*
X11625000Y1800000D01*
G75*
G02*
X11550000Y1875000I0J75000D01*
G01*
G37*
G36*
G01*
X11050000Y1875000D02*
X11050000Y3200000D01*
G75*
G02*
X11125000Y3275000I75000J0D01*
G01*
X11275000Y3275000D01*
G75*
G02*
X11350000Y3200000I0J-75000D01*
G01*
X11350000Y1875000D01*
G75*
G02*
X11275000Y1800000I-75000J0D01*
G01*
X11125000Y1800000D01*
G75*
G02*
X11050000Y1875000I0J75000D01*
G01*
G37*
G36*
G01*
X10550000Y1875000D02*
X10550000Y3200000D01*
G75*
G02*
X10625000Y3275000I75000J0D01*
G01*
X10775000Y3275000D01*
G75*
G02*
X10850000Y3200000I0J-75000D01*
G01*
X10850000Y1875000D01*
G75*
G02*
X10775000Y1800000I-75000J0D01*
G01*
X10625000Y1800000D01*
G75*
G02*
X10550000Y1875000I0J75000D01*
G01*
G37*
G36*
G01*
X10050000Y1875000D02*
X10050000Y3200000D01*
G75*
G02*
X10125000Y3275000I75000J0D01*
G01*
X10275000Y3275000D01*
G75*
G02*
X10350000Y3200000I0J-75000D01*
G01*
X10350000Y1875000D01*
G75*
G02*
X10275000Y1800000I-75000J0D01*
G01*
X10125000Y1800000D01*
G75*
G02*
X10050000Y1875000I0J75000D01*
G01*
G37*
G36*
G01*
X9550000Y1875000D02*
X9550000Y3200000D01*
G75*
G02*
X9625000Y3275000I75000J0D01*
G01*
X9775000Y3275000D01*
G75*
G02*
X9850000Y3200000I0J-75000D01*
G01*
X9850000Y1875000D01*
G75*
G02*
X9775000Y1800000I-75000J0D01*
G01*
X9625000Y1800000D01*
G75*
G02*
X9550000Y1875000I0J75000D01*
G01*
G37*
G36*
G01*
X7550000Y3875000D02*
X7550000Y4025000D01*
G75*
G02*
X7625000Y4100000I75000J0D01*
G01*
X8950000Y4100000D01*
G75*
G02*
X9025000Y4025000I0J-75000D01*
G01*
X9025000Y3875000D01*
G75*
G02*
X8950000Y3800000I-75000J0D01*
G01*
X7625000Y3800000D01*
G75*
G02*
X7550000Y3875000I0J75000D01*
G01*
G37*
G36*
G01*
X7550000Y4375000D02*
X7550000Y4525000D01*
G75*
G02*
X7625000Y4600000I75000J0D01*
G01*
X8950000Y4600000D01*
G75*
G02*
X9025000Y4525000I0J-75000D01*
G01*
X9025000Y4375000D01*
G75*
G02*
X8950000Y4300000I-75000J0D01*
G01*
X7625000Y4300000D01*
G75*
G02*
X7550000Y4375000I0J75000D01*
G01*
G37*
G36*
G01*
X7550000Y4875000D02*
X7550000Y5025000D01*
G75*
G02*
X7625000Y5100000I75000J0D01*
G01*
X8950000Y5100000D01*
G75*
G02*
X9025000Y5025000I0J-75000D01*
G01*
X9025000Y4875000D01*
G75*
G02*
X8950000Y4800000I-75000J0D01*
G01*
X7625000Y4800000D01*
G75*
G02*
X7550000Y4875000I0J75000D01*
G01*
G37*
G36*
G01*
X7550000Y5375000D02*
X7550000Y5525000D01*
G75*
G02*
X7625000Y5600000I75000J0D01*
G01*
X8950000Y5600000D01*
G75*
G02*
X9025000Y5525000I0J-75000D01*
G01*
X9025000Y5375000D01*
G75*
G02*
X8950000Y5300000I-75000J0D01*
G01*
X7625000Y5300000D01*
G75*
G02*
X7550000Y5375000I0J75000D01*
G01*
G37*
G36*
G01*
X7550000Y5875000D02*
X7550000Y6025000D01*
G75*
G02*
X7625000Y6100000I75000J0D01*
G01*
X8950000Y6100000D01*
G75*
G02*
X9025000Y6025000I0J-75000D01*
G01*
X9025000Y5875000D01*
G75*
G02*
X8950000Y5800000I-75000J0D01*
G01*
X7625000Y5800000D01*
G75*
G02*
X7550000Y5875000I0J75000D01*
G01*
G37*
G36*
G01*
X7550000Y6375000D02*
X7550000Y6525000D01*
G75*
G02*
X7625000Y6600000I75000J0D01*
G01*
X8950000Y6600000D01*
G75*
G02*
X9025000Y6525000I0J-75000D01*
G01*
X9025000Y6375000D01*
G75*
G02*
X8950000Y6300000I-75000J0D01*
G01*
X7625000Y6300000D01*
G75*
G02*
X7550000Y6375000I0J75000D01*
G01*
G37*
G36*
G01*
X7550000Y6875000D02*
X7550000Y7025000D01*
G75*
G02*
X7625000Y7100000I75000J0D01*
G01*
X8950000Y7100000D01*
G75*
G02*
X9025000Y7025000I0J-75000D01*
G01*
X9025000Y6875000D01*
G75*
G02*
X8950000Y6800000I-75000J0D01*
G01*
X7625000Y6800000D01*
G75*
G02*
X7550000Y6875000I0J75000D01*
G01*
G37*
G36*
G01*
X7550000Y7375000D02*
X7550000Y7525000D01*
G75*
G02*
X7625000Y7600000I75000J0D01*
G01*
X8950000Y7600000D01*
G75*
G02*
X9025000Y7525000I0J-75000D01*
G01*
X9025000Y7375000D01*
G75*
G02*
X8950000Y7300000I-75000J0D01*
G01*
X7625000Y7300000D01*
G75*
G02*
X7550000Y7375000I0J75000D01*
G01*
G37*
G36*
G01*
X7550000Y7875000D02*
X7550000Y8025000D01*
G75*
G02*
X7625000Y8100000I75000J0D01*
G01*
X8950000Y8100000D01*
G75*
G02*
X9025000Y8025000I0J-75000D01*
G01*
X9025000Y7875000D01*
G75*
G02*
X8950000Y7800000I-75000J0D01*
G01*
X7625000Y7800000D01*
G75*
G02*
X7550000Y7875000I0J75000D01*
G01*
G37*
G36*
G01*
X7550000Y8375000D02*
X7550000Y8525000D01*
G75*
G02*
X7625000Y8600000I75000J0D01*
G01*
X8950000Y8600000D01*
G75*
G02*
X9025000Y8525000I0J-75000D01*
G01*
X9025000Y8375000D01*
G75*
G02*
X8950000Y8300000I-75000J0D01*
G01*
X7625000Y8300000D01*
G75*
G02*
X7550000Y8375000I0J75000D01*
G01*
G37*
G36*
G01*
X7550000Y8875000D02*
X7550000Y9025000D01*
G75*
G02*
X7625000Y9100000I75000J0D01*
G01*
X8950000Y9100000D01*
G75*
G02*
X9025000Y9025000I0J-75000D01*
G01*
X9025000Y8875000D01*
G75*
G02*
X8950000Y8800000I-75000J0D01*
G01*
X7625000Y8800000D01*
G75*
G02*
X7550000Y8875000I0J75000D01*
G01*
G37*
G36*
G01*
X7550000Y9375000D02*
X7550000Y9525000D01*
G75*
G02*
X7625000Y9600000I75000J0D01*
G01*
X8950000Y9600000D01*
G75*
G02*
X9025000Y9525000I0J-75000D01*
G01*
X9025000Y9375000D01*
G75*
G02*
X8950000Y9300000I-75000J0D01*
G01*
X7625000Y9300000D01*
G75*
G02*
X7550000Y9375000I0J75000D01*
G01*
G37*
G36*
G01*
X20550000Y9480000D02*
X20550000Y9820000D01*
G75*
G02*
X20690000Y9960000I140000J0D01*
G01*
X20970000Y9960000D01*
G75*
G02*
X21110000Y9820000I0J-140000D01*
G01*
X21110000Y9480000D01*
G75*
G02*
X20970000Y9340000I-140000J0D01*
G01*
X20690000Y9340000D01*
G75*
G02*
X20550000Y9480000I0J140000D01*
G01*
G37*
G36*
G01*
X19590000Y9480000D02*
X19590000Y9820000D01*
G75*
G02*
X19730000Y9960000I140000J0D01*
G01*
X20010000Y9960000D01*
G75*
G02*
X20150000Y9820000I0J-140000D01*
G01*
X20150000Y9480000D01*
G75*
G02*
X20010000Y9340000I-140000J0D01*
G01*
X19730000Y9340000D01*
G75*
G02*
X19590000Y9480000I0J140000D01*
G01*
G37*
G36*
G01*
X20550000Y1530000D02*
X20550000Y1870000D01*
G75*
G02*
X20690000Y2010000I140000J0D01*
G01*
X20970000Y2010000D01*
G75*
G02*
X21110000Y1870000I0J-140000D01*
G01*
X21110000Y1530000D01*
G75*
G02*
X20970000Y1390000I-140000J0D01*
G01*
X20690000Y1390000D01*
G75*
G02*
X20550000Y1530000I0J140000D01*
G01*
G37*
G36*
G01*
X19590000Y1530000D02*
X19590000Y1870000D01*
G75*
G02*
X19730000Y2010000I140000J0D01*
G01*
X20010000Y2010000D01*
G75*
G02*
X20150000Y1870000I0J-140000D01*
G01*
X20150000Y1530000D01*
G75*
G02*
X20010000Y1390000I-140000J0D01*
G01*
X19730000Y1390000D01*
G75*
G02*
X19590000Y1530000I0J140000D01*
G01*
G37*
G36*
G01*
X-200000Y-7320000D02*
X-200000Y-6980000D01*
G75*
G02*
X-60000Y-6840000I140000J0D01*
G01*
X220000Y-6840000D01*
G75*
G02*
X360000Y-6980000I0J-140000D01*
G01*
X360000Y-7320000D01*
G75*
G02*
X220000Y-7460000I-140000J0D01*
G01*
X-60000Y-7460000D01*
G75*
G02*
X-200000Y-7320000I0J140000D01*
G01*
G37*
G36*
G01*
X-1160000Y-7320000D02*
X-1160000Y-6980000D01*
G75*
G02*
X-1020000Y-6840000I140000J0D01*
G01*
X-740000Y-6840000D01*
G75*
G02*
X-600000Y-6980000I0J-140000D01*
G01*
X-600000Y-7320000D01*
G75*
G02*
X-740000Y-7460000I-140000J0D01*
G01*
X-1020000Y-7460000D01*
G75*
G02*
X-1160000Y-7320000I0J140000D01*
G01*
G37*
G36*
G01*
X25000Y-13770000D02*
X25000Y-13430000D01*
G75*
G02*
X165000Y-13290000I140000J0D01*
G01*
X445000Y-13290000D01*
G75*
G02*
X585000Y-13430000I0J-140000D01*
G01*
X585000Y-13770000D01*
G75*
G02*
X445000Y-13910000I-140000J0D01*
G01*
X165000Y-13910000D01*
G75*
G02*
X25000Y-13770000I0J140000D01*
G01*
G37*
G36*
G01*
X-935000Y-13770000D02*
X-935000Y-13430000D01*
G75*
G02*
X-795000Y-13290000I140000J0D01*
G01*
X-515000Y-13290000D01*
G75*
G02*
X-375000Y-13430000I0J-140000D01*
G01*
X-375000Y-13770000D01*
G75*
G02*
X-515000Y-13910000I-140000J0D01*
G01*
X-795000Y-13910000D01*
G75*
G02*
X-935000Y-13770000I0J140000D01*
G01*
G37*
G36*
G01*
X20590000Y3665000D02*
X20590000Y4035000D01*
G75*
G02*
X20725000Y4170000I135000J0D01*
G01*
X20995000Y4170000D01*
G75*
G02*
X21130000Y4035000I0J-135000D01*
G01*
X21130000Y3665000D01*
G75*
G02*
X20995000Y3530000I-135000J0D01*
G01*
X20725000Y3530000D01*
G75*
G02*
X20590000Y3665000I0J135000D01*
G01*
G37*
G36*
G01*
X19570000Y3665000D02*
X19570000Y4035000D01*
G75*
G02*
X19705000Y4170000I135000J0D01*
G01*
X19975000Y4170000D01*
G75*
G02*
X20110000Y4035000I0J-135000D01*
G01*
X20110000Y3665000D01*
G75*
G02*
X19975000Y3530000I-135000J0D01*
G01*
X19705000Y3530000D01*
G75*
G02*
X19570000Y3665000I0J135000D01*
G01*
G37*
G36*
G01*
X10035000Y19990000D02*
X9665000Y19990000D01*
G75*
G02*
X9530000Y20125000I0J135000D01*
G01*
X9530000Y20395000D01*
G75*
G02*
X9665000Y20530000I135000J0D01*
G01*
X10035000Y20530000D01*
G75*
G02*
X10170000Y20395000I0J-135000D01*
G01*
X10170000Y20125000D01*
G75*
G02*
X10035000Y19990000I-135000J0D01*
G01*
G37*
G36*
G01*
X10035000Y18970000D02*
X9665000Y18970000D01*
G75*
G02*
X9530000Y19105000I0J135000D01*
G01*
X9530000Y19375000D01*
G75*
G02*
X9665000Y19510000I135000J0D01*
G01*
X10035000Y19510000D01*
G75*
G02*
X10170000Y19375000I0J-135000D01*
G01*
X10170000Y19105000D01*
G75*
G02*
X10035000Y18970000I-135000J0D01*
G01*
G37*
G36*
G01*
X8760000Y16735000D02*
X8760000Y16365000D01*
G75*
G02*
X8625000Y16230000I-135000J0D01*
G01*
X8355000Y16230000D01*
G75*
G02*
X8220000Y16365000I0J135000D01*
G01*
X8220000Y16735000D01*
G75*
G02*
X8355000Y16870000I135000J0D01*
G01*
X8625000Y16870000D01*
G75*
G02*
X8760000Y16735000I0J-135000D01*
G01*
G37*
G36*
G01*
X9780000Y16735000D02*
X9780000Y16365000D01*
G75*
G02*
X9645000Y16230000I-135000J0D01*
G01*
X9375000Y16230000D01*
G75*
G02*
X9240000Y16365000I0J135000D01*
G01*
X9240000Y16735000D01*
G75*
G02*
X9375000Y16870000I135000J0D01*
G01*
X9645000Y16870000D01*
G75*
G02*
X9780000Y16735000I0J-135000D01*
G01*
G37*
G36*
G01*
X8565000Y19510000D02*
X8935000Y19510000D01*
G75*
G02*
X9070000Y19375000I0J-135000D01*
G01*
X9070000Y19105000D01*
G75*
G02*
X8935000Y18970000I-135000J0D01*
G01*
X8565000Y18970000D01*
G75*
G02*
X8430000Y19105000I0J135000D01*
G01*
X8430000Y19375000D01*
G75*
G02*
X8565000Y19510000I135000J0D01*
G01*
G37*
G36*
G01*
X8565000Y20530000D02*
X8935000Y20530000D01*
G75*
G02*
X9070000Y20395000I0J-135000D01*
G01*
X9070000Y20125000D01*
G75*
G02*
X8935000Y19990000I-135000J0D01*
G01*
X8565000Y19990000D01*
G75*
G02*
X8430000Y20125000I0J135000D01*
G01*
X8430000Y20395000D01*
G75*
G02*
X8565000Y20530000I135000J0D01*
G01*
G37*
G36*
G01*
X11915000Y19510000D02*
X12285000Y19510000D01*
G75*
G02*
X12420000Y19375000I0J-135000D01*
G01*
X12420000Y19105000D01*
G75*
G02*
X12285000Y18970000I-135000J0D01*
G01*
X11915000Y18970000D01*
G75*
G02*
X11780000Y19105000I0J135000D01*
G01*
X11780000Y19375000D01*
G75*
G02*
X11915000Y19510000I135000J0D01*
G01*
G37*
G36*
G01*
X11915000Y20530000D02*
X12285000Y20530000D01*
G75*
G02*
X12420000Y20395000I0J-135000D01*
G01*
X12420000Y20125000D01*
G75*
G02*
X12285000Y19990000I-135000J0D01*
G01*
X11915000Y19990000D01*
G75*
G02*
X11780000Y20125000I0J135000D01*
G01*
X11780000Y20395000D01*
G75*
G02*
X11915000Y20530000I135000J0D01*
G01*
G37*
G36*
G01*
X10865000Y19510000D02*
X11235000Y19510000D01*
G75*
G02*
X11370000Y19375000I0J-135000D01*
G01*
X11370000Y19105000D01*
G75*
G02*
X11235000Y18970000I-135000J0D01*
G01*
X10865000Y18970000D01*
G75*
G02*
X10730000Y19105000I0J135000D01*
G01*
X10730000Y19375000D01*
G75*
G02*
X10865000Y19510000I135000J0D01*
G01*
G37*
G36*
G01*
X10865000Y20530000D02*
X11235000Y20530000D01*
G75*
G02*
X11370000Y20395000I0J-135000D01*
G01*
X11370000Y20125000D01*
G75*
G02*
X11235000Y19990000I-135000J0D01*
G01*
X10865000Y19990000D01*
G75*
G02*
X10730000Y20125000I0J135000D01*
G01*
X10730000Y20395000D01*
G75*
G02*
X10865000Y20530000I135000J0D01*
G01*
G37*
G36*
G01*
X20110000Y5085000D02*
X20110000Y4715000D01*
G75*
G02*
X19975000Y4580000I-135000J0D01*
G01*
X19705000Y4580000D01*
G75*
G02*
X19570000Y4715000I0J135000D01*
G01*
X19570000Y5085000D01*
G75*
G02*
X19705000Y5220000I135000J0D01*
G01*
X19975000Y5220000D01*
G75*
G02*
X20110000Y5085000I0J-135000D01*
G01*
G37*
G36*
G01*
X21130000Y5085000D02*
X21130000Y4715000D01*
G75*
G02*
X20995000Y4580000I-135000J0D01*
G01*
X20725000Y4580000D01*
G75*
G02*
X20590000Y4715000I0J135000D01*
G01*
X20590000Y5085000D01*
G75*
G02*
X20725000Y5220000I135000J0D01*
G01*
X20995000Y5220000D01*
G75*
G02*
X21130000Y5085000I0J-135000D01*
G01*
G37*
G36*
G01*
X20110000Y6885000D02*
X20110000Y6515000D01*
G75*
G02*
X19975000Y6380000I-135000J0D01*
G01*
X19705000Y6380000D01*
G75*
G02*
X19570000Y6515000I0J135000D01*
G01*
X19570000Y6885000D01*
G75*
G02*
X19705000Y7020000I135000J0D01*
G01*
X19975000Y7020000D01*
G75*
G02*
X20110000Y6885000I0J-135000D01*
G01*
G37*
G36*
G01*
X21130000Y6885000D02*
X21130000Y6515000D01*
G75*
G02*
X20995000Y6380000I-135000J0D01*
G01*
X20725000Y6380000D01*
G75*
G02*
X20590000Y6515000I0J135000D01*
G01*
X20590000Y6885000D01*
G75*
G02*
X20725000Y7020000I135000J0D01*
G01*
X20995000Y7020000D01*
G75*
G02*
X21130000Y6885000I0J-135000D01*
G01*
G37*
G36*
G01*
X20110000Y7935000D02*
X20110000Y7565000D01*
G75*
G02*
X19975000Y7430000I-135000J0D01*
G01*
X19705000Y7430000D01*
G75*
G02*
X19570000Y7565000I0J135000D01*
G01*
X19570000Y7935000D01*
G75*
G02*
X19705000Y8070000I135000J0D01*
G01*
X19975000Y8070000D01*
G75*
G02*
X20110000Y7935000I0J-135000D01*
G01*
G37*
G36*
G01*
X21130000Y7935000D02*
X21130000Y7565000D01*
G75*
G02*
X20995000Y7430000I-135000J0D01*
G01*
X20725000Y7430000D01*
G75*
G02*
X20590000Y7565000I0J135000D01*
G01*
X20590000Y7935000D01*
G75*
G02*
X20725000Y8070000I135000J0D01*
G01*
X20995000Y8070000D01*
G75*
G02*
X21130000Y7935000I0J-135000D01*
G01*
G37*
G36*
G01*
X23775000Y-7725000D02*
X24325000Y-7725000D01*
G75*
G02*
X24525000Y-7925000I0J-200000D01*
G01*
X24525000Y-8325000D01*
G75*
G02*
X24325000Y-8525000I-200000J0D01*
G01*
X23775000Y-8525000D01*
G75*
G02*
X23575000Y-8325000I0J200000D01*
G01*
X23575000Y-7925000D01*
G75*
G02*
X23775000Y-7725000I200000J0D01*
G01*
G37*
G36*
G01*
X23775000Y-6075000D02*
X24325000Y-6075000D01*
G75*
G02*
X24525000Y-6275000I0J-200000D01*
G01*
X24525000Y-6675000D01*
G75*
G02*
X24325000Y-6875000I-200000J0D01*
G01*
X23775000Y-6875000D01*
G75*
G02*
X23575000Y-6675000I0J200000D01*
G01*
X23575000Y-6275000D01*
G75*
G02*
X23775000Y-6075000I200000J0D01*
G01*
G37*
G36*
G01*
X20550000Y2580000D02*
X20550000Y2920000D01*
G75*
G02*
X20690000Y3060000I140000J0D01*
G01*
X20970000Y3060000D01*
G75*
G02*
X21110000Y2920000I0J-140000D01*
G01*
X21110000Y2580000D01*
G75*
G02*
X20970000Y2440000I-140000J0D01*
G01*
X20690000Y2440000D01*
G75*
G02*
X20550000Y2580000I0J140000D01*
G01*
G37*
G36*
G01*
X19590000Y2580000D02*
X19590000Y2920000D01*
G75*
G02*
X19730000Y3060000I140000J0D01*
G01*
X20010000Y3060000D01*
G75*
G02*
X20150000Y2920000I0J-140000D01*
G01*
X20150000Y2580000D01*
G75*
G02*
X20010000Y2440000I-140000J0D01*
G01*
X19730000Y2440000D01*
G75*
G02*
X19590000Y2580000I0J140000D01*
G01*
G37*
G36*
G01*
X15380000Y-400000D02*
X15720000Y-400000D01*
G75*
G02*
X15860000Y-540000I0J-140000D01*
G01*
X15860000Y-820000D01*
G75*
G02*
X15720000Y-960000I-140000J0D01*
G01*
X15380000Y-960000D01*
G75*
G02*
X15240000Y-820000I0J140000D01*
G01*
X15240000Y-540000D01*
G75*
G02*
X15380000Y-400000I140000J0D01*
G01*
G37*
G36*
G01*
X15380000Y560000D02*
X15720000Y560000D01*
G75*
G02*
X15860000Y420000I0J-140000D01*
G01*
X15860000Y140000D01*
G75*
G02*
X15720000Y0I-140000J0D01*
G01*
X15380000Y0D01*
G75*
G02*
X15240000Y140000I0J140000D01*
G01*
X15240000Y420000D01*
G75*
G02*
X15380000Y560000I140000J0D01*
G01*
G37*
G36*
G01*
X15370000Y13450000D02*
X15030000Y13450000D01*
G75*
G02*
X14890000Y13590000I0J140000D01*
G01*
X14890000Y13870000D01*
G75*
G02*
X15030000Y14010000I140000J0D01*
G01*
X15370000Y14010000D01*
G75*
G02*
X15510000Y13870000I0J-140000D01*
G01*
X15510000Y13590000D01*
G75*
G02*
X15370000Y13450000I-140000J0D01*
G01*
G37*
G36*
G01*
X15370000Y12490000D02*
X15030000Y12490000D01*
G75*
G02*
X14890000Y12630000I0J140000D01*
G01*
X14890000Y12910000D01*
G75*
G02*
X15030000Y13050000I140000J0D01*
G01*
X15370000Y13050000D01*
G75*
G02*
X15510000Y12910000I0J-140000D01*
G01*
X15510000Y12630000D01*
G75*
G02*
X15370000Y12490000I-140000J0D01*
G01*
G37*
D11*
X-9700000Y-13700000D03*
D12*
X-13700000Y-14700000D03*
D11*
X-14700000Y-10700000D03*
D12*
X-10700000Y-9700000D03*
X-11200000Y-9700000D03*
X-11700000Y-9700000D03*
X-12200000Y-9700000D03*
X-12700000Y-9700000D03*
X-13200000Y-9700000D03*
X-13700000Y-9700000D03*
D11*
X-14700000Y-11200000D03*
X-14700000Y-11700000D03*
X-14700000Y-12200000D03*
X-14700000Y-12700000D03*
X-14700000Y-13200000D03*
X-14700000Y-13700000D03*
D12*
X-13200000Y-14700000D03*
X-12700000Y-14700000D03*
X-12200000Y-14700000D03*
X-11700000Y-14700000D03*
X-11200000Y-14700000D03*
X-10700000Y-14700000D03*
D11*
X-9700000Y-13200000D03*
X-9700000Y-12700000D03*
X-9700000Y-12200000D03*
X-9700000Y-11700000D03*
X-9700000Y-11200000D03*
X-9700000Y-10700000D03*
D13*
X-12200000Y-12200000D03*
G36*
G01*
X-9126000Y-6431500D02*
X-9126000Y-6776500D01*
G75*
G02*
X-9273500Y-6924000I-147500J0D01*
G01*
X-9568500Y-6924000D01*
G75*
G02*
X-9716000Y-6776500I0J147500D01*
G01*
X-9716000Y-6431500D01*
G75*
G02*
X-9568500Y-6284000I147500J0D01*
G01*
X-9273500Y-6284000D01*
G75*
G02*
X-9126000Y-6431500I0J-147500D01*
G01*
G37*
G36*
G01*
X-10096000Y-6431500D02*
X-10096000Y-6776500D01*
G75*
G02*
X-10243500Y-6924000I-147500J0D01*
G01*
X-10538500Y-6924000D01*
G75*
G02*
X-10686000Y-6776500I0J147500D01*
G01*
X-10686000Y-6431500D01*
G75*
G02*
X-10538500Y-6284000I147500J0D01*
G01*
X-10243500Y-6284000D01*
G75*
G02*
X-10096000Y-6431500I0J-147500D01*
G01*
G37*
D14*
X-8906000Y-22573500D03*
D15*
X-12406000Y-19873500D03*
D16*
X-10556000Y-19873500D03*
X-11206000Y-19873500D03*
X-8606000Y-19873500D03*
X-9256000Y-19873500D03*
X-9906000Y-19873500D03*
D15*
X-7406000Y-19873500D03*
D14*
X-10906000Y-22573500D03*
D17*
X-13406000Y-22573500D03*
X-6406000Y-22573500D03*
D18*
X-7006000Y-22573500D03*
X-12806000Y-22573500D03*
D19*
X-6284000Y-8366000D03*
X-4384000Y-8366000D03*
X-5334000Y-6366000D03*
X-4384000Y-10176000D03*
X-6284000Y-10176000D03*
X-5334000Y-12176000D03*
G36*
G01*
X24275000Y-4225000D02*
X23725000Y-4225000D01*
G75*
G02*
X23525000Y-4025000I0J200000D01*
G01*
X23525000Y-3625000D01*
G75*
G02*
X23725000Y-3425000I200000J0D01*
G01*
X24275000Y-3425000D01*
G75*
G02*
X24475000Y-3625000I0J-200000D01*
G01*
X24475000Y-4025000D01*
G75*
G02*
X24275000Y-4225000I-200000J0D01*
G01*
G37*
G36*
G01*
X24275000Y-2575000D02*
X23725000Y-2575000D01*
G75*
G02*
X23525000Y-2375000I0J200000D01*
G01*
X23525000Y-1975000D01*
G75*
G02*
X23725000Y-1775000I200000J0D01*
G01*
X24275000Y-1775000D01*
G75*
G02*
X24475000Y-1975000I0J-200000D01*
G01*
X24475000Y-2375000D01*
G75*
G02*
X24275000Y-2575000I-200000J0D01*
G01*
G37*
G36*
G01*
X-1281250Y-8700000D02*
X-518750Y-8700000D01*
G75*
G02*
X-300000Y-8918750I0J-218750D01*
G01*
X-300000Y-9356250D01*
G75*
G02*
X-518750Y-9575000I-218750J0D01*
G01*
X-1281250Y-9575000D01*
G75*
G02*
X-1500000Y-9356250I0J218750D01*
G01*
X-1500000Y-8918750D01*
G75*
G02*
X-1281250Y-8700000I218750J0D01*
G01*
G37*
G36*
G01*
X-1281250Y-10825000D02*
X-518750Y-10825000D01*
G75*
G02*
X-300000Y-11043750I0J-218750D01*
G01*
X-300000Y-11481250D01*
G75*
G02*
X-518750Y-11700000I-218750J0D01*
G01*
X-1281250Y-11700000D01*
G75*
G02*
X-1500000Y-11481250I0J218750D01*
G01*
X-1500000Y-11043750D01*
G75*
G02*
X-1281250Y-10825000I218750J0D01*
G01*
G37*
G36*
G01*
X-2920000Y2385000D02*
X-2920000Y2015000D01*
G75*
G02*
X-3055000Y1880000I-135000J0D01*
G01*
X-3325000Y1880000D01*
G75*
G02*
X-3460000Y2015000I0J135000D01*
G01*
X-3460000Y2385000D01*
G75*
G02*
X-3325000Y2520000I135000J0D01*
G01*
X-3055000Y2520000D01*
G75*
G02*
X-2920000Y2385000I0J-135000D01*
G01*
G37*
G36*
G01*
X-3940000Y2385000D02*
X-3940000Y2015000D01*
G75*
G02*
X-4075000Y1880000I-135000J0D01*
G01*
X-4345000Y1880000D01*
G75*
G02*
X-4480000Y2015000I0J135000D01*
G01*
X-4480000Y2385000D01*
G75*
G02*
X-4345000Y2520000I135000J0D01*
G01*
X-4075000Y2520000D01*
G75*
G02*
X-3940000Y2385000I0J-135000D01*
G01*
G37*
D20*
X-15700000Y7400000D03*
D21*
X-23200000Y14900000D03*
X-23200000Y13630000D03*
X-23200000Y12360000D03*
X-23200000Y11090000D03*
X-23200000Y9820000D03*
X-23200000Y8550000D03*
X-23200000Y7280000D03*
X-23200000Y6010000D03*
X-23200000Y4740000D03*
X-23200000Y3470000D03*
X-23200000Y2200000D03*
X-23200000Y930000D03*
X-23200000Y-340000D03*
X-23200000Y-1610000D03*
D22*
X-20415000Y-2610000D03*
X-19145000Y-2610000D03*
X-17875000Y-2610000D03*
X-16605000Y-2610000D03*
X-15335000Y-2610000D03*
X-14065000Y-2610000D03*
X-12795000Y-2610000D03*
X-11525000Y-2610000D03*
X-10255000Y-2610000D03*
X-8985000Y-2610000D03*
D21*
X-6200000Y-1610000D03*
X-6200000Y-340000D03*
X-6200000Y930000D03*
X-6200000Y2200000D03*
X-6200000Y3470000D03*
X-6200000Y4740000D03*
X-6200000Y6010000D03*
X-6200000Y7280000D03*
X-6200000Y8550000D03*
X-6200000Y9820000D03*
X-6200000Y11090000D03*
X-6200000Y12360000D03*
X-6200000Y13630000D03*
X-6200000Y14900000D03*
D23*
X-1000000Y-22300000D03*
D24*
X-1000000Y-16000000D03*
X-3300000Y-16000000D03*
X1300000Y-16000000D03*
D25*
X-20210000Y-5540000D03*
D26*
X-22700000Y-6800000D03*
X-22700000Y-11300000D03*
D25*
X-20210000Y-12550000D03*
G36*
G01*
X9780000Y15635000D02*
X9780000Y15265000D01*
G75*
G02*
X9645000Y15130000I-135000J0D01*
G01*
X9375000Y15130000D01*
G75*
G02*
X9240000Y15265000I0J135000D01*
G01*
X9240000Y15635000D01*
G75*
G02*
X9375000Y15770000I135000J0D01*
G01*
X9645000Y15770000D01*
G75*
G02*
X9780000Y15635000I0J-135000D01*
G01*
G37*
G36*
G01*
X8760000Y15635000D02*
X8760000Y15265000D01*
G75*
G02*
X8625000Y15130000I-135000J0D01*
G01*
X8355000Y15130000D01*
G75*
G02*
X8220000Y15265000I0J135000D01*
G01*
X8220000Y15635000D01*
G75*
G02*
X8355000Y15770000I135000J0D01*
G01*
X8625000Y15770000D01*
G75*
G02*
X8760000Y15635000I0J-135000D01*
G01*
G37*
G36*
G01*
X9780000Y13435000D02*
X9780000Y13065000D01*
G75*
G02*
X9645000Y12930000I-135000J0D01*
G01*
X9375000Y12930000D01*
G75*
G02*
X9240000Y13065000I0J135000D01*
G01*
X9240000Y13435000D01*
G75*
G02*
X9375000Y13570000I135000J0D01*
G01*
X9645000Y13570000D01*
G75*
G02*
X9780000Y13435000I0J-135000D01*
G01*
G37*
G36*
G01*
X8760000Y13435000D02*
X8760000Y13065000D01*
G75*
G02*
X8625000Y12930000I-135000J0D01*
G01*
X8355000Y12930000D01*
G75*
G02*
X8220000Y13065000I0J135000D01*
G01*
X8220000Y13435000D01*
G75*
G02*
X8355000Y13570000I135000J0D01*
G01*
X8625000Y13570000D01*
G75*
G02*
X8760000Y13435000I0J-135000D01*
G01*
G37*
G36*
G01*
X9780000Y14535000D02*
X9780000Y14165000D01*
G75*
G02*
X9645000Y14030000I-135000J0D01*
G01*
X9375000Y14030000D01*
G75*
G02*
X9240000Y14165000I0J135000D01*
G01*
X9240000Y14535000D01*
G75*
G02*
X9375000Y14670000I135000J0D01*
G01*
X9645000Y14670000D01*
G75*
G02*
X9780000Y14535000I0J-135000D01*
G01*
G37*
G36*
G01*
X8760000Y14535000D02*
X8760000Y14165000D01*
G75*
G02*
X8625000Y14030000I-135000J0D01*
G01*
X8355000Y14030000D01*
G75*
G02*
X8220000Y14165000I0J135000D01*
G01*
X8220000Y14535000D01*
G75*
G02*
X8355000Y14670000I135000J0D01*
G01*
X8625000Y14670000D01*
G75*
G02*
X8760000Y14535000I0J-135000D01*
G01*
G37*
G36*
G01*
X7960000Y-2585000D02*
X7960000Y-2215000D01*
G75*
G02*
X8095000Y-2080000I135000J0D01*
G01*
X8365000Y-2080000D01*
G75*
G02*
X8500000Y-2215000I0J-135000D01*
G01*
X8500000Y-2585000D01*
G75*
G02*
X8365000Y-2720000I-135000J0D01*
G01*
X8095000Y-2720000D01*
G75*
G02*
X7960000Y-2585000I0J135000D01*
G01*
G37*
G36*
G01*
X8980000Y-2585000D02*
X8980000Y-2215000D01*
G75*
G02*
X9115000Y-2080000I135000J0D01*
G01*
X9385000Y-2080000D01*
G75*
G02*
X9520000Y-2215000I0J-135000D01*
G01*
X9520000Y-2585000D01*
G75*
G02*
X9385000Y-2720000I-135000J0D01*
G01*
X9115000Y-2720000D01*
G75*
G02*
X8980000Y-2585000I0J135000D01*
G01*
G37*
G36*
G01*
X11540000Y-2215000D02*
X11540000Y-2585000D01*
G75*
G02*
X11405000Y-2720000I-135000J0D01*
G01*
X11135000Y-2720000D01*
G75*
G02*
X11000000Y-2585000I0J135000D01*
G01*
X11000000Y-2215000D01*
G75*
G02*
X11135000Y-2080000I135000J0D01*
G01*
X11405000Y-2080000D01*
G75*
G02*
X11540000Y-2215000I0J-135000D01*
G01*
G37*
G36*
G01*
X10520000Y-2215000D02*
X10520000Y-2585000D01*
G75*
G02*
X10385000Y-2720000I-135000J0D01*
G01*
X10115000Y-2720000D01*
G75*
G02*
X9980000Y-2585000I0J135000D01*
G01*
X9980000Y-2215000D01*
G75*
G02*
X10115000Y-2080000I135000J0D01*
G01*
X10385000Y-2080000D01*
G75*
G02*
X10520000Y-2215000I0J-135000D01*
G01*
G37*
G36*
G01*
X14010000Y-2585000D02*
X14010000Y-2215000D01*
G75*
G02*
X14145000Y-2080000I135000J0D01*
G01*
X14415000Y-2080000D01*
G75*
G02*
X14550000Y-2215000I0J-135000D01*
G01*
X14550000Y-2585000D01*
G75*
G02*
X14415000Y-2720000I-135000J0D01*
G01*
X14145000Y-2720000D01*
G75*
G02*
X14010000Y-2585000I0J135000D01*
G01*
G37*
G36*
G01*
X15030000Y-2585000D02*
X15030000Y-2215000D01*
G75*
G02*
X15165000Y-2080000I135000J0D01*
G01*
X15435000Y-2080000D01*
G75*
G02*
X15570000Y-2215000I0J-135000D01*
G01*
X15570000Y-2585000D01*
G75*
G02*
X15435000Y-2720000I-135000J0D01*
G01*
X15165000Y-2720000D01*
G75*
G02*
X15030000Y-2585000I0J135000D01*
G01*
G37*
G36*
G01*
X17590000Y-2215000D02*
X17590000Y-2585000D01*
G75*
G02*
X17455000Y-2720000I-135000J0D01*
G01*
X17185000Y-2720000D01*
G75*
G02*
X17050000Y-2585000I0J135000D01*
G01*
X17050000Y-2215000D01*
G75*
G02*
X17185000Y-2080000I135000J0D01*
G01*
X17455000Y-2080000D01*
G75*
G02*
X17590000Y-2215000I0J-135000D01*
G01*
G37*
G36*
G01*
X16570000Y-2215000D02*
X16570000Y-2585000D01*
G75*
G02*
X16435000Y-2720000I-135000J0D01*
G01*
X16165000Y-2720000D01*
G75*
G02*
X16030000Y-2585000I0J135000D01*
G01*
X16030000Y-2215000D01*
G75*
G02*
X16165000Y-2080000I135000J0D01*
G01*
X16435000Y-2080000D01*
G75*
G02*
X16570000Y-2215000I0J-135000D01*
G01*
G37*
G36*
G01*
X4185000Y1070000D02*
X3815000Y1070000D01*
G75*
G02*
X3680000Y1205000I0J135000D01*
G01*
X3680000Y1475000D01*
G75*
G02*
X3815000Y1610000I135000J0D01*
G01*
X4185000Y1610000D01*
G75*
G02*
X4320000Y1475000I0J-135000D01*
G01*
X4320000Y1205000D01*
G75*
G02*
X4185000Y1070000I-135000J0D01*
G01*
G37*
G36*
G01*
X4185000Y2090000D02*
X3815000Y2090000D01*
G75*
G02*
X3680000Y2225000I0J135000D01*
G01*
X3680000Y2495000D01*
G75*
G02*
X3815000Y2630000I135000J0D01*
G01*
X4185000Y2630000D01*
G75*
G02*
X4320000Y2495000I0J-135000D01*
G01*
X4320000Y2225000D01*
G75*
G02*
X4185000Y2090000I-135000J0D01*
G01*
G37*
G36*
G01*
X-4490000Y12115000D02*
X-4490000Y12485000D01*
G75*
G02*
X-4355000Y12620000I135000J0D01*
G01*
X-4085000Y12620000D01*
G75*
G02*
X-3950000Y12485000I0J-135000D01*
G01*
X-3950000Y12115000D01*
G75*
G02*
X-4085000Y11980000I-135000J0D01*
G01*
X-4355000Y11980000D01*
G75*
G02*
X-4490000Y12115000I0J135000D01*
G01*
G37*
G36*
G01*
X-3470000Y12115000D02*
X-3470000Y12485000D01*
G75*
G02*
X-3335000Y12620000I135000J0D01*
G01*
X-3065000Y12620000D01*
G75*
G02*
X-2930000Y12485000I0J-135000D01*
G01*
X-2930000Y12115000D01*
G75*
G02*
X-3065000Y11980000I-135000J0D01*
G01*
X-3335000Y11980000D01*
G75*
G02*
X-3470000Y12115000I0J135000D01*
G01*
G37*
G36*
G01*
X-17315000Y-10130000D02*
X-17685000Y-10130000D01*
G75*
G02*
X-17820000Y-9995000I0J135000D01*
G01*
X-17820000Y-9725000D01*
G75*
G02*
X-17685000Y-9590000I135000J0D01*
G01*
X-17315000Y-9590000D01*
G75*
G02*
X-17180000Y-9725000I0J-135000D01*
G01*
X-17180000Y-9995000D01*
G75*
G02*
X-17315000Y-10130000I-135000J0D01*
G01*
G37*
G36*
G01*
X-17315000Y-9110000D02*
X-17685000Y-9110000D01*
G75*
G02*
X-17820000Y-8975000I0J135000D01*
G01*
X-17820000Y-8705000D01*
G75*
G02*
X-17685000Y-8570000I135000J0D01*
G01*
X-17315000Y-8570000D01*
G75*
G02*
X-17180000Y-8705000I0J-135000D01*
G01*
X-17180000Y-8975000D01*
G75*
G02*
X-17315000Y-9110000I-135000J0D01*
G01*
G37*
G36*
G01*
X-4480000Y8315000D02*
X-4480000Y8685000D01*
G75*
G02*
X-4345000Y8820000I135000J0D01*
G01*
X-4075000Y8820000D01*
G75*
G02*
X-3940000Y8685000I0J-135000D01*
G01*
X-3940000Y8315000D01*
G75*
G02*
X-4075000Y8180000I-135000J0D01*
G01*
X-4345000Y8180000D01*
G75*
G02*
X-4480000Y8315000I0J135000D01*
G01*
G37*
G36*
G01*
X-3460000Y8315000D02*
X-3460000Y8685000D01*
G75*
G02*
X-3325000Y8820000I135000J0D01*
G01*
X-3055000Y8820000D01*
G75*
G02*
X-2920000Y8685000I0J-135000D01*
G01*
X-2920000Y8315000D01*
G75*
G02*
X-3055000Y8180000I-135000J0D01*
G01*
X-3325000Y8180000D01*
G75*
G02*
X-3460000Y8315000I0J135000D01*
G01*
G37*
G36*
G01*
X-4490000Y5915000D02*
X-4490000Y6285000D01*
G75*
G02*
X-4355000Y6420000I135000J0D01*
G01*
X-4085000Y6420000D01*
G75*
G02*
X-3950000Y6285000I0J-135000D01*
G01*
X-3950000Y5915000D01*
G75*
G02*
X-4085000Y5780000I-135000J0D01*
G01*
X-4355000Y5780000D01*
G75*
G02*
X-4490000Y5915000I0J135000D01*
G01*
G37*
G36*
G01*
X-3470000Y5915000D02*
X-3470000Y6285000D01*
G75*
G02*
X-3335000Y6420000I135000J0D01*
G01*
X-3065000Y6420000D01*
G75*
G02*
X-2930000Y6285000I0J-135000D01*
G01*
X-2930000Y5915000D01*
G75*
G02*
X-3065000Y5780000I-135000J0D01*
G01*
X-3335000Y5780000D01*
G75*
G02*
X-3470000Y5915000I0J135000D01*
G01*
G37*
G36*
G01*
X-574998Y362500D02*
X-1825002Y362500D01*
G75*
G02*
X-2075000Y612498I0J249998D01*
G01*
X-2075000Y1237502D01*
G75*
G02*
X-1825002Y1487500I249998J0D01*
G01*
X-574998Y1487500D01*
G75*
G02*
X-325000Y1237502I0J-249998D01*
G01*
X-325000Y612498D01*
G75*
G02*
X-574998Y362500I-249998J0D01*
G01*
G37*
G36*
G01*
X-574998Y3287500D02*
X-1825002Y3287500D01*
G75*
G02*
X-2075000Y3537498I0J249998D01*
G01*
X-2075000Y4162502D01*
G75*
G02*
X-1825002Y4412500I249998J0D01*
G01*
X-574998Y4412500D01*
G75*
G02*
X-325000Y4162502I0J-249998D01*
G01*
X-325000Y3537498D01*
G75*
G02*
X-574998Y3287500I-249998J0D01*
G01*
G37*
G36*
G01*
X1125000Y1100000D02*
X575000Y1100000D01*
G75*
G02*
X375000Y1300000I0J200000D01*
G01*
X375000Y1700000D01*
G75*
G02*
X575000Y1900000I200000J0D01*
G01*
X1125000Y1900000D01*
G75*
G02*
X1325000Y1700000I0J-200000D01*
G01*
X1325000Y1300000D01*
G75*
G02*
X1125000Y1100000I-200000J0D01*
G01*
G37*
G36*
G01*
X1125000Y2750000D02*
X575000Y2750000D01*
G75*
G02*
X375000Y2950000I0J200000D01*
G01*
X375000Y3350000D01*
G75*
G02*
X575000Y3550000I200000J0D01*
G01*
X1125000Y3550000D01*
G75*
G02*
X1325000Y3350000I0J-200000D01*
G01*
X1325000Y2950000D01*
G75*
G02*
X1125000Y2750000I-200000J0D01*
G01*
G37*
G36*
G01*
X2775000Y1100000D02*
X2225000Y1100000D01*
G75*
G02*
X2025000Y1300000I0J200000D01*
G01*
X2025000Y1700000D01*
G75*
G02*
X2225000Y1900000I200000J0D01*
G01*
X2775000Y1900000D01*
G75*
G02*
X2975000Y1700000I0J-200000D01*
G01*
X2975000Y1300000D01*
G75*
G02*
X2775000Y1100000I-200000J0D01*
G01*
G37*
G36*
G01*
X2775000Y2750000D02*
X2225000Y2750000D01*
G75*
G02*
X2025000Y2950000I0J200000D01*
G01*
X2025000Y3350000D01*
G75*
G02*
X2225000Y3550000I200000J0D01*
G01*
X2775000Y3550000D01*
G75*
G02*
X2975000Y3350000I0J-200000D01*
G01*
X2975000Y2950000D01*
G75*
G02*
X2775000Y2750000I-200000J0D01*
G01*
G37*
G36*
G01*
X-9126000Y-5149000D02*
X-9126000Y-5519000D01*
G75*
G02*
X-9261000Y-5654000I-135000J0D01*
G01*
X-9531000Y-5654000D01*
G75*
G02*
X-9666000Y-5519000I0J135000D01*
G01*
X-9666000Y-5149000D01*
G75*
G02*
X-9531000Y-5014000I135000J0D01*
G01*
X-9261000Y-5014000D01*
G75*
G02*
X-9126000Y-5149000I0J-135000D01*
G01*
G37*
G36*
G01*
X-10146000Y-5149000D02*
X-10146000Y-5519000D01*
G75*
G02*
X-10281000Y-5654000I-135000J0D01*
G01*
X-10551000Y-5654000D01*
G75*
G02*
X-10686000Y-5519000I0J135000D01*
G01*
X-10686000Y-5149000D01*
G75*
G02*
X-10551000Y-5014000I135000J0D01*
G01*
X-10281000Y-5014000D01*
G75*
G02*
X-10146000Y-5149000I0J-135000D01*
G01*
G37*
G36*
G01*
X2735000Y16930000D02*
X2365000Y16930000D01*
G75*
G02*
X2230000Y17065000I0J135000D01*
G01*
X2230000Y17335000D01*
G75*
G02*
X2365000Y17470000I135000J0D01*
G01*
X2735000Y17470000D01*
G75*
G02*
X2870000Y17335000I0J-135000D01*
G01*
X2870000Y17065000D01*
G75*
G02*
X2735000Y16930000I-135000J0D01*
G01*
G37*
G36*
G01*
X2735000Y17950000D02*
X2365000Y17950000D01*
G75*
G02*
X2230000Y18085000I0J135000D01*
G01*
X2230000Y18355000D01*
G75*
G02*
X2365000Y18490000I135000J0D01*
G01*
X2735000Y18490000D01*
G75*
G02*
X2870000Y18355000I0J-135000D01*
G01*
X2870000Y18085000D01*
G75*
G02*
X2735000Y17950000I-135000J0D01*
G01*
G37*
D27*
X-500000Y14800000D03*
X-500000Y12900000D03*
X1500000Y13850000D03*
X-500000Y7550000D03*
X-500000Y5650000D03*
X1500000Y6600000D03*
X-500000Y11200000D03*
X-500000Y9300000D03*
X1500000Y10250000D03*
D28*
X8020000Y-8000000D03*
D29*
X9290000Y-5460000D03*
X10560000Y-8000000D03*
X11830000Y-5460000D03*
X13100000Y-8000000D03*
X14370000Y-5460000D03*
X15640000Y-8000000D03*
X16910000Y-5460000D03*
D30*
X18790000Y-17720000D03*
X16250000Y-19240000D03*
X8680000Y-17720000D03*
X6140000Y-19240000D03*
D31*
X4690000Y-11290000D03*
X20240000Y-11290000D03*
D32*
X6750000Y-14340000D03*
X18180000Y-14340000D03*
D33*
X20550000Y19050000D03*
X-20550000Y-19050000D03*
D34*
X1400000Y-1450000D03*
X300000Y-1450000D03*
X-800000Y-1450000D03*
X-800000Y-4550000D03*
X300000Y-4550000D03*
X1400000Y-4550000D03*
G36*
G01*
X2243750Y21887500D02*
X2756250Y21887500D01*
G75*
G02*
X2975000Y21668750I0J-218750D01*
G01*
X2975000Y21231250D01*
G75*
G02*
X2756250Y21012500I-218750J0D01*
G01*
X2243750Y21012500D01*
G75*
G02*
X2025000Y21231250I0J218750D01*
G01*
X2025000Y21668750D01*
G75*
G02*
X2243750Y21887500I218750J0D01*
G01*
G37*
G36*
G01*
X2243750Y20312500D02*
X2756250Y20312500D01*
G75*
G02*
X2975000Y20093750I0J-218750D01*
G01*
X2975000Y19656250D01*
G75*
G02*
X2756250Y19437500I-218750J0D01*
G01*
X2243750Y19437500D01*
G75*
G02*
X2025000Y19656250I0J218750D01*
G01*
X2025000Y20093750D01*
G75*
G02*
X2243750Y20312500I218750J0D01*
G01*
G37*
G36*
G01*
X12020000Y-2570000D02*
X12020000Y-2230000D01*
G75*
G02*
X12160000Y-2090000I140000J0D01*
G01*
X12440000Y-2090000D01*
G75*
G02*
X12580000Y-2230000I0J-140000D01*
G01*
X12580000Y-2570000D01*
G75*
G02*
X12440000Y-2710000I-140000J0D01*
G01*
X12160000Y-2710000D01*
G75*
G02*
X12020000Y-2570000I0J140000D01*
G01*
G37*
G36*
G01*
X12980000Y-2570000D02*
X12980000Y-2230000D01*
G75*
G02*
X13120000Y-2090000I140000J0D01*
G01*
X13400000Y-2090000D01*
G75*
G02*
X13540000Y-2230000I0J-140000D01*
G01*
X13540000Y-2570000D01*
G75*
G02*
X13400000Y-2710000I-140000J0D01*
G01*
X13120000Y-2710000D01*
G75*
G02*
X12980000Y-2570000I0J140000D01*
G01*
G37*
G36*
G01*
X8610000Y11470000D02*
X8610000Y11130000D01*
G75*
G02*
X8470000Y10990000I-140000J0D01*
G01*
X8190000Y10990000D01*
G75*
G02*
X8050000Y11130000I0J140000D01*
G01*
X8050000Y11470000D01*
G75*
G02*
X8190000Y11610000I140000J0D01*
G01*
X8470000Y11610000D01*
G75*
G02*
X8610000Y11470000I0J-140000D01*
G01*
G37*
G36*
G01*
X7650000Y11470000D02*
X7650000Y11130000D01*
G75*
G02*
X7510000Y10990000I-140000J0D01*
G01*
X7230000Y10990000D01*
G75*
G02*
X7090000Y11130000I0J140000D01*
G01*
X7090000Y11470000D01*
G75*
G02*
X7230000Y11610000I140000J0D01*
G01*
X7510000Y11610000D01*
G75*
G02*
X7650000Y11470000I0J-140000D01*
G01*
G37*
G36*
G01*
X17480000Y560000D02*
X17820000Y560000D01*
G75*
G02*
X17960000Y420000I0J-140000D01*
G01*
X17960000Y140000D01*
G75*
G02*
X17820000Y0I-140000J0D01*
G01*
X17480000Y0D01*
G75*
G02*
X17340000Y140000I0J140000D01*
G01*
X17340000Y420000D01*
G75*
G02*
X17480000Y560000I140000J0D01*
G01*
G37*
G36*
G01*
X17480000Y-400000D02*
X17820000Y-400000D01*
G75*
G02*
X17960000Y-540000I0J-140000D01*
G01*
X17960000Y-820000D01*
G75*
G02*
X17820000Y-960000I-140000J0D01*
G01*
X17480000Y-960000D01*
G75*
G02*
X17340000Y-820000I0J140000D01*
G01*
X17340000Y-540000D01*
G75*
G02*
X17480000Y-400000I140000J0D01*
G01*
G37*
G36*
G01*
X16430000Y560000D02*
X16770000Y560000D01*
G75*
G02*
X16910000Y420000I0J-140000D01*
G01*
X16910000Y140000D01*
G75*
G02*
X16770000Y0I-140000J0D01*
G01*
X16430000Y0D01*
G75*
G02*
X16290000Y140000I0J140000D01*
G01*
X16290000Y420000D01*
G75*
G02*
X16430000Y560000I140000J0D01*
G01*
G37*
G36*
G01*
X16430000Y-400000D02*
X16770000Y-400000D01*
G75*
G02*
X16910000Y-540000I0J-140000D01*
G01*
X16910000Y-820000D01*
G75*
G02*
X16770000Y-960000I-140000J0D01*
G01*
X16430000Y-960000D01*
G75*
G02*
X16290000Y-820000I0J140000D01*
G01*
X16290000Y-540000D01*
G75*
G02*
X16430000Y-400000I140000J0D01*
G01*
G37*
G36*
G01*
X-5670000Y-15440000D02*
X-5330000Y-15440000D01*
G75*
G02*
X-5190000Y-15580000I0J-140000D01*
G01*
X-5190000Y-15860000D01*
G75*
G02*
X-5330000Y-16000000I-140000J0D01*
G01*
X-5670000Y-16000000D01*
G75*
G02*
X-5810000Y-15860000I0J140000D01*
G01*
X-5810000Y-15580000D01*
G75*
G02*
X-5670000Y-15440000I140000J0D01*
G01*
G37*
G36*
G01*
X-5670000Y-16400000D02*
X-5330000Y-16400000D01*
G75*
G02*
X-5190000Y-16540000I0J-140000D01*
G01*
X-5190000Y-16820000D01*
G75*
G02*
X-5330000Y-16960000I-140000J0D01*
G01*
X-5670000Y-16960000D01*
G75*
G02*
X-5810000Y-16820000I0J140000D01*
G01*
X-5810000Y-16540000D01*
G75*
G02*
X-5670000Y-16400000I140000J0D01*
G01*
G37*
G36*
G01*
X-7520000Y-15460000D02*
X-7180000Y-15460000D01*
G75*
G02*
X-7040000Y-15600000I0J-140000D01*
G01*
X-7040000Y-15880000D01*
G75*
G02*
X-7180000Y-16020000I-140000J0D01*
G01*
X-7520000Y-16020000D01*
G75*
G02*
X-7660000Y-15880000I0J140000D01*
G01*
X-7660000Y-15600000D01*
G75*
G02*
X-7520000Y-15460000I140000J0D01*
G01*
G37*
G36*
G01*
X-7520000Y-16420000D02*
X-7180000Y-16420000D01*
G75*
G02*
X-7040000Y-16560000I0J-140000D01*
G01*
X-7040000Y-16840000D01*
G75*
G02*
X-7180000Y-16980000I-140000J0D01*
G01*
X-7520000Y-16980000D01*
G75*
G02*
X-7660000Y-16840000I0J140000D01*
G01*
X-7660000Y-16560000D01*
G75*
G02*
X-7520000Y-16420000I140000J0D01*
G01*
G37*
M02*
