M48
; DRILL file {KiCad (5.1.7)-1} date 04/20/21 15:22:50
; FORMAT={-:-/ absolute / inch / decimal}
; #@! TF.CreationDate,2021-04-20T15:22:50-07:00
; #@! TF.GenerationSoftware,Kicad,Pcbnew,(5.1.7)-1
FMAT,2
INCH
T1C0.0118
T2C0.0236
T3C0.0335
T4C0.0350
T5C0.0354
T6C0.0390
T7C0.0512
T8C0.0630
T9C0.0866
T10C0.1280
%
G90
G05
T1
X-0.8445Y0.4843
X-0.8346Y0.5866
X-0.8346Y0.5354
X-0.813Y0.1358
X-0.813Y0.0866
X-0.7953Y0.2244
X-0.7657Y0.187
X-0.7559Y-0.0276
X-0.689Y0.3543
X-0.689Y0.315
X-0.689Y0.2756
X-0.689Y0.2362
X-0.65Y-0.49
X-0.6496Y0.3346
X-0.6496Y0.2953
X-0.6496Y0.2559
X-0.6496Y0.2165
X-0.6102Y-0.2835
X-0.5958Y-0.8258
X-0.5906Y0.3346
X-0.5906Y0.2953
X-0.5906Y0.2559
X-0.5906Y0.2165
X-0.5512Y0.3543
X-0.5512Y0.315
X-0.5512Y0.2756
X-0.5512Y0.2362
X-0.5138Y-0.4469
X-0.5138Y-0.4921
X-0.5118Y-0.1969
X-0.5118Y-0.3228
X-0.4941Y-0.2815
X-0.4626Y-0.4469
X-0.4626Y-0.4921
X-0.45Y-0.21
X-0.45Y-0.26
X-0.45Y-0.33
X-0.4173Y-0.6827
X-0.3917Y-0.7117
X-0.3484Y0.4547
X-0.3346Y0.4114
X-0.3346Y0.3602
X-0.3327Y-0.4508
X-0.33Y-0.71
X-0.3209Y0.4902
X-0.3189Y0.5866
X-0.2913Y-0.4626
X-0.2913Y-0.6929
X-0.2165Y-0.6929
X-0.2142Y-0.8258
X-0.1811Y0.0374
X-0.1732Y0.2874
X-0.1673Y0.4331
X-0.1457Y0.0492
X-0.126Y-0.7244
X-0.126Y-0.7874
X-0.0886Y0.4646
X-0.0886Y0.3346
X-0.0886Y0.2382
X-0.0728Y0.5
X-0.0591Y0.372
X-0.0512Y0.2539
X-0.0443Y-0.4829
X-0.0394Y-0.7244
X-0.0394Y-0.7874
X-0.0354Y-0.322
X0.0197Y0.4961
X0.0354Y-0.7283
X0.0354Y-0.7835
X0.0453Y-0.2815
X0.0512Y-0.5669
X0.0787Y-0.7008
X0.0984Y0.8937
X0.1398Y0.6791
X0.1575Y0.0236
X0.2362Y0.3228
X0.2559Y0.4685
X0.2618Y0.3524
X0.2618Y0.2874
X0.2894Y-0.0945
X0.2992Y0.6516
X0.2992Y0.6083
X0.2992Y0.565
X0.2992Y0.5236
X0.3268Y0.4803
X0.3425Y0.8406
X0.3898Y0.8346
X0.3937Y0.3091
X0.4016Y0.4843
X0.4213Y0.1516
X0.4429Y-0.6102
X0.4508Y0.6969
X0.4626Y-0.0591
X0.4646Y0.1555
X0.4783Y0.8287
X0.4843Y0.1909
X0.4961Y-0.0571
X0.5236Y0.1988
X0.5256Y0.372
X0.5276Y0.2972
X0.5315Y-0.0571
X0.5591Y0.185
X0.561Y0.3031
X0.5787Y0.1535
X0.6004Y0.5866
X0.6043Y0.3327
X0.7106Y0.3642
X0.7165Y-0.0925
X0.7185Y0.2953
X0.7343Y0.0098
X0.7343Y-0.0335
X0.75Y0.1083
X0.8563Y0.1476
X0.8563Y0.1083
X0.8583Y0.1929
X0.8602Y0.3799
X0.8642Y0.2638
X0.8858Y-0.2028
T3
X-0.4884Y-0.7824
X-0.2916Y-0.7824
T4
X0.2417Y-0.7575
X0.3417Y-0.6976
X0.6398Y-0.7575
X0.7398Y-0.6976
T5
X0.3157Y-0.315
X0.3657Y-0.215
X0.4157Y-0.315
X0.4657Y-0.215
X0.5157Y-0.315
X0.5657Y-0.215
X0.6157Y-0.315
X0.6657Y-0.215
T6
X-0.8937Y-0.2677
X-0.8937Y-0.4449
T7
X-0.7957Y-0.2181
X-0.7957Y-0.4941
T8
X0.1846Y-0.4445
X0.7969Y-0.4445
T9
X-0.8091Y-0.75
X0.8091Y0.75
T10
X0.2657Y-0.5646
X0.7157Y-0.5646
T2
G00X-0.5278Y-0.9025
M15
G01X-0.5278Y-0.8749
M16
G05
G00X-0.2522Y-0.8749
M15
G01X-0.2522Y-0.9025
M16
G05
T0
M30
