G04 #@! TF.GenerationSoftware,KiCad,Pcbnew,(5.1.7)-1*
G04 #@! TF.CreationDate,2021-04-20T15:22:48-07:00*
G04 #@! TF.ProjectId,EsperDNS,45737065-7244-44e5-932e-6b696361645f,rev?*
G04 #@! TF.SameCoordinates,Original*
G04 #@! TF.FileFunction,Legend,Top*
G04 #@! TF.FilePolarity,Positive*
%FSLAX46Y46*%
G04 Gerber Fmt 4.6, Leading zero omitted, Abs format (unit mm)*
G04 Created by KiCad (PCBNEW (5.1.7)-1) date 2021-04-20 15:22:48*
%MOMM*%
%LPD*%
G01*
G04 APERTURE LIST*
%ADD10C,0.300000*%
G04 #@! TA.AperFunction,Profile*
%ADD11C,0.100000*%
G04 #@! TD*
%ADD12C,0.120000*%
%ADD13C,0.100000*%
%ADD14C,0.150000*%
G04 APERTURE END LIST*
D10*
X7071428Y22071428D02*
X6571428Y22785714D01*
X6214285Y22071428D02*
X6214285Y23571428D01*
X6785714Y23571428D01*
X6928571Y23500000D01*
X7000000Y23428571D01*
X7071428Y23285714D01*
X7071428Y23071428D01*
X7000000Y22928571D01*
X6928571Y22857142D01*
X6785714Y22785714D01*
X6214285Y22785714D01*
X8285714Y22142857D02*
X8142857Y22071428D01*
X7857142Y22071428D01*
X7714285Y22142857D01*
X7642857Y22285714D01*
X7642857Y22857142D01*
X7714285Y23000000D01*
X7857142Y23071428D01*
X8142857Y23071428D01*
X8285714Y23000000D01*
X8357142Y22857142D01*
X8357142Y22714285D01*
X7642857Y22571428D01*
X8857142Y23071428D02*
X9214285Y22071428D01*
X9571428Y23071428D01*
X11214285Y22500000D02*
X11928571Y22500000D01*
X11071428Y22071428D02*
X11571428Y23571428D01*
X12071428Y22071428D01*
X13357142Y22071428D02*
X12500000Y22071428D01*
X12928571Y22071428D02*
X12928571Y23571428D01*
X12785714Y23357142D01*
X12642857Y23214285D01*
X12500000Y23142857D01*
D11*
X-25500000Y-19050000D02*
G75*
G03*
X-20550000Y-24000000I4950000J0D01*
G01*
X20550000Y-24000000D02*
G75*
G03*
X25500000Y-19050000I0J4950000D01*
G01*
X25500000Y19050000D02*
G75*
G03*
X20550000Y24000000I-4950000J0D01*
G01*
X-20550000Y24000000D02*
G75*
G03*
X-25500000Y19050000I0J-4950000D01*
G01*
D12*
X-15600000Y-19050000D02*
G75*
G03*
X-15600000Y-19050000I-4950000J0D01*
G01*
X25500000Y19050000D02*
G75*
G03*
X25500000Y19050000I-4950000J0D01*
G01*
X2350000Y20700000D02*
X2500000Y20850000D01*
X2650000Y20700000D02*
X2350000Y20700000D01*
X2500000Y20850000D02*
X2650000Y20700000D01*
X2500000Y20450000D02*
X2500000Y20850000D01*
D11*
X25500000Y19050000D02*
X25500000Y-19050000D01*
X-20550000Y24000000D02*
X20550000Y24000000D01*
X-25500000Y19050000D02*
X-25500000Y-19050000D01*
X-20550000Y-24000000D02*
X20550000Y-24000000D01*
D12*
X15610000Y3090000D02*
X16060000Y3090000D01*
X16060000Y3090000D02*
X16060000Y3540000D01*
X9290000Y3090000D02*
X8840000Y3090000D01*
X8840000Y3090000D02*
X8840000Y3540000D01*
X15610000Y10310000D02*
X16060000Y10310000D01*
X16060000Y10310000D02*
X16060000Y9860000D01*
X9290000Y10310000D02*
X8840000Y10310000D01*
X8840000Y10310000D02*
X8840000Y9860000D01*
X8840000Y9860000D02*
X7550000Y9860000D01*
X20242164Y10010000D02*
X20457836Y10010000D01*
X20242164Y9290000D02*
X20457836Y9290000D01*
X20242164Y2060000D02*
X20457836Y2060000D01*
X20242164Y1340000D02*
X20457836Y1340000D01*
X-507836Y-6790000D02*
X-292164Y-6790000D01*
X-507836Y-7510000D02*
X-292164Y-7510000D01*
X-282836Y-13240000D02*
X-67164Y-13240000D01*
X-282836Y-13960000D02*
X-67164Y-13960000D01*
X20196359Y4230000D02*
X20503641Y4230000D01*
X20196359Y3470000D02*
X20503641Y3470000D01*
X9470000Y19596359D02*
X9470000Y19903641D01*
X10230000Y19596359D02*
X10230000Y19903641D01*
X9153641Y16170000D02*
X8846359Y16170000D01*
X9153641Y16930000D02*
X8846359Y16930000D01*
X9130000Y19903641D02*
X9130000Y19596359D01*
X8370000Y19903641D02*
X8370000Y19596359D01*
X12480000Y19903641D02*
X12480000Y19596359D01*
X11720000Y19903641D02*
X11720000Y19596359D01*
X11430000Y19903641D02*
X11430000Y19596359D01*
X10670000Y19903641D02*
X10670000Y19596359D01*
X20503641Y4520000D02*
X20196359Y4520000D01*
X20503641Y5280000D02*
X20196359Y5280000D01*
X20503641Y6320000D02*
X20196359Y6320000D01*
X20503641Y7080000D02*
X20196359Y7080000D01*
X20503641Y7370000D02*
X20196359Y7370000D01*
X20503641Y8130000D02*
X20196359Y8130000D01*
X24572500Y-7062742D02*
X24572500Y-7537258D01*
X23527500Y-7062742D02*
X23527500Y-7537258D01*
X20242164Y3110000D02*
X20457836Y3110000D01*
X20242164Y2390000D02*
X20457836Y2390000D01*
X15910000Y-92164D02*
X15910000Y-307836D01*
X15190000Y-92164D02*
X15190000Y-307836D01*
X14840000Y13142164D02*
X14840000Y13357836D01*
X15560000Y13142164D02*
X15560000Y13357836D01*
D13*
X-14800000Y-9600000D02*
X-14300000Y-9600000D01*
X-14800000Y-9600000D02*
X-14800000Y-10100000D01*
X-14800000Y-14800000D02*
X-14800000Y-14300000D01*
X-14800000Y-14800000D02*
X-14300000Y-14800000D01*
X-9600000Y-14800000D02*
X-10100000Y-14800000D01*
X-9600000Y-14800000D02*
X-9600000Y-14300000D01*
X-9600000Y-9600000D02*
X-10400000Y-9600000D01*
X-10400000Y-9600000D02*
X-10400000Y-9400000D01*
X-9600000Y-9600000D02*
X-9600000Y-10100000D01*
D12*
X-13806000Y-19573500D02*
X-13356000Y-19573500D01*
X-13806000Y-21423500D02*
X-13806000Y-19573500D01*
X-6006000Y-23973500D02*
X-6006000Y-23723500D01*
X-13806000Y-23973500D02*
X-13806000Y-23723500D01*
X-6006000Y-21423500D02*
X-6006000Y-19573500D01*
X-6006000Y-19573500D02*
X-6456000Y-19573500D01*
X-11606000Y-19023500D02*
X-11156000Y-19023500D01*
X-11606000Y-19023500D02*
X-11606000Y-19473500D01*
X-3754000Y-6606000D02*
X-4684000Y-6606000D01*
X-6914000Y-6606000D02*
X-5984000Y-6606000D01*
X-6914000Y-6606000D02*
X-6914000Y-8766000D01*
X-3754000Y-6606000D02*
X-3754000Y-8066000D01*
X-6914000Y-11936000D02*
X-5984000Y-11936000D01*
X-3754000Y-11936000D02*
X-4684000Y-11936000D01*
X-3754000Y-11936000D02*
X-3754000Y-9776000D01*
X-6914000Y-11936000D02*
X-6914000Y-10476000D01*
X24522500Y-3237258D02*
X24522500Y-2762742D01*
X23477500Y-3237258D02*
X23477500Y-2762742D01*
X-1460000Y-9800378D02*
X-1460000Y-10599622D01*
X-340000Y-9800378D02*
X-340000Y-10599622D01*
X-3546359Y2580000D02*
X-3853641Y2580000D01*
X-3546359Y1820000D02*
X-3853641Y1820000D01*
X-23820000Y-2455000D02*
X-23820000Y-3235000D01*
X-23820000Y-3235000D02*
X-22820000Y-3235000D01*
X-5580000Y-2455000D02*
X-5580000Y-3235000D01*
X-5580000Y-3235000D02*
X-6580000Y-3235000D01*
X-23820000Y22510000D02*
X-5580000Y22510000D01*
X-5580000Y22510000D02*
X-5580000Y16090000D01*
X-23820000Y22510000D02*
X-23820000Y16090000D01*
X-23820000Y16090000D02*
X-24200000Y16090000D01*
X-4410000Y-21060000D02*
X-3150000Y-21060000D01*
X2410000Y-21060000D02*
X1150000Y-21060000D01*
X-4410000Y-17300000D02*
X-4410000Y-21060000D01*
X2410000Y-15050000D02*
X2410000Y-21060000D01*
X-21730000Y-12390000D02*
X-21500000Y-12390000D01*
X-25400000Y-12910000D02*
X-25400000Y-5190000D01*
X-25400000Y-5190000D02*
X-21500000Y-5190000D01*
X-18390000Y-12910000D02*
X-18390000Y-12390000D01*
X-25400000Y-12910000D02*
X-21500000Y-12910000D01*
X-21730000Y-5710000D02*
X-21500000Y-5710000D01*
X-18900000Y-12390000D02*
X-18390000Y-12390000D01*
X-18900000Y-12910000D02*
X-18390000Y-12910000D01*
X-21730000Y-6250000D02*
X-21730000Y-5710000D01*
X-18900000Y-5710000D02*
X-18390000Y-5710000D01*
X-18390000Y-5710000D02*
X-18390000Y-5190000D01*
X-18900000Y-5190000D02*
X-18390000Y-5190000D01*
X-21730000Y-12390000D02*
X-21730000Y-11850000D01*
X-21730000Y-10750000D02*
X-21730000Y-7350000D01*
X9153641Y15070000D02*
X8846359Y15070000D01*
X9153641Y15830000D02*
X8846359Y15830000D01*
X9153641Y12870000D02*
X8846359Y12870000D01*
X9153641Y13630000D02*
X8846359Y13630000D01*
X9153641Y13970000D02*
X8846359Y13970000D01*
X9153641Y14730000D02*
X8846359Y14730000D01*
X8586359Y-2020000D02*
X8893641Y-2020000D01*
X8586359Y-2780000D02*
X8893641Y-2780000D01*
X10913641Y-2780000D02*
X10606359Y-2780000D01*
X10913641Y-2020000D02*
X10606359Y-2020000D01*
X14636359Y-2020000D02*
X14943641Y-2020000D01*
X14636359Y-2780000D02*
X14943641Y-2780000D01*
X16963641Y-2780000D02*
X16656359Y-2780000D01*
X16963641Y-2020000D02*
X16656359Y-2020000D01*
X3620000Y1696359D02*
X3620000Y2003641D01*
X4380000Y1696359D02*
X4380000Y2003641D01*
X-3863641Y12680000D02*
X-3556359Y12680000D01*
X-3863641Y11920000D02*
X-3556359Y11920000D01*
X-17880000Y-9503641D02*
X-17880000Y-9196359D01*
X-17120000Y-9503641D02*
X-17120000Y-9196359D01*
X-3853641Y8880000D02*
X-3546359Y8880000D01*
X-3853641Y8120000D02*
X-3546359Y8120000D01*
X-3863641Y6480000D02*
X-3556359Y6480000D01*
X-3863641Y5720000D02*
X-3556359Y5720000D01*
X-2110000Y1660436D02*
X-2110000Y3114564D01*
X-290000Y1660436D02*
X-290000Y3114564D01*
X327500Y2087742D02*
X327500Y2562258D01*
X1372500Y2087742D02*
X1372500Y2562258D01*
X1977500Y2087742D02*
X1977500Y2562258D01*
X3022500Y2087742D02*
X3022500Y2562258D01*
X-9752359Y-5714000D02*
X-10059641Y-5714000D01*
X-9752359Y-4954000D02*
X-10059641Y-4954000D01*
X2170000Y17556359D02*
X2170000Y17863641D01*
X2930000Y17556359D02*
X2930000Y17863641D01*
X1260000Y12270000D02*
X1260000Y13200000D01*
X1260000Y15430000D02*
X1260000Y14500000D01*
X1260000Y15430000D02*
X-900000Y15430000D01*
X1260000Y12270000D02*
X-200000Y12270000D01*
X1260000Y5020000D02*
X1260000Y5950000D01*
X1260000Y8180000D02*
X1260000Y7250000D01*
X1260000Y8180000D02*
X-900000Y8180000D01*
X1260000Y5020000D02*
X-200000Y5020000D01*
X1260000Y8670000D02*
X1260000Y9600000D01*
X1260000Y11830000D02*
X1260000Y10900000D01*
X1260000Y11830000D02*
X-900000Y11830000D01*
X1260000Y8670000D02*
X-200000Y8670000D01*
X4490000Y-9690000D02*
X4490000Y-3410000D01*
X4490000Y-3410000D02*
X20440000Y-3410000D01*
X20440000Y-3410000D02*
X20440000Y-9690000D01*
X20440000Y-12890000D02*
X20440000Y-25330000D01*
X20440000Y-25330000D02*
X4490000Y-25330000D01*
X4490000Y-25330000D02*
X4490000Y-12890000D01*
X4290000Y-7000000D02*
X4290000Y-9000000D01*
X2100000Y-450000D02*
X1200000Y-450000D01*
X-1500000Y-450000D02*
X-1500000Y-5350000D01*
X2100000Y-5350000D02*
X2100000Y-450000D01*
X3235000Y19862500D02*
X3235000Y22147500D01*
X3235000Y22147500D02*
X1765000Y22147500D01*
X1765000Y22147500D02*
X1765000Y19862500D01*
X12672164Y-2040000D02*
X12887836Y-2040000D01*
X12672164Y-2760000D02*
X12887836Y-2760000D01*
X7957836Y10940000D02*
X7742164Y10940000D01*
X7957836Y11660000D02*
X7742164Y11660000D01*
X18010000Y-92164D02*
X18010000Y-307836D01*
X17290000Y-92164D02*
X17290000Y-307836D01*
X16960000Y-92164D02*
X16960000Y-307836D01*
X16240000Y-92164D02*
X16240000Y-307836D01*
X-5140000Y-16092164D02*
X-5140000Y-16307836D01*
X-5860000Y-16092164D02*
X-5860000Y-16307836D01*
X-6990000Y-16112164D02*
X-6990000Y-16327836D01*
X-7710000Y-16112164D02*
X-7710000Y-16327836D01*
D14*
X16038095Y11797619D02*
X16038095Y10988095D01*
X16085714Y10892857D01*
X16133333Y10845238D01*
X16228571Y10797619D01*
X16419047Y10797619D01*
X16514285Y10845238D01*
X16561904Y10892857D01*
X16609523Y10988095D01*
X16609523Y11797619D01*
X17561904Y11797619D02*
X17085714Y11797619D01*
X17038095Y11321428D01*
X17085714Y11369047D01*
X17180952Y11416666D01*
X17419047Y11416666D01*
X17514285Y11369047D01*
X17561904Y11321428D01*
X17609523Y11226190D01*
X17609523Y10988095D01*
X17561904Y10892857D01*
X17514285Y10845238D01*
X17419047Y10797619D01*
X17180952Y10797619D01*
X17085714Y10845238D01*
X17038095Y10892857D01*
X20183333Y10452857D02*
X20135714Y10405238D01*
X19992857Y10357619D01*
X19897619Y10357619D01*
X19754761Y10405238D01*
X19659523Y10500476D01*
X19611904Y10595714D01*
X19564285Y10786190D01*
X19564285Y10929047D01*
X19611904Y11119523D01*
X19659523Y11214761D01*
X19754761Y11310000D01*
X19897619Y11357619D01*
X19992857Y11357619D01*
X20135714Y11310000D01*
X20183333Y11262380D01*
X21040476Y11357619D02*
X20850000Y11357619D01*
X20754761Y11310000D01*
X20707142Y11262380D01*
X20611904Y11119523D01*
X20564285Y10929047D01*
X20564285Y10548095D01*
X20611904Y10452857D01*
X20659523Y10405238D01*
X20754761Y10357619D01*
X20945238Y10357619D01*
X21040476Y10405238D01*
X21088095Y10452857D01*
X21135714Y10548095D01*
X21135714Y10786190D01*
X21088095Y10881428D01*
X21040476Y10929047D01*
X20945238Y10976666D01*
X20754761Y10976666D01*
X20659523Y10929047D01*
X20611904Y10881428D01*
X20564285Y10786190D01*
X23057142Y1142857D02*
X23009523Y1095238D01*
X22866666Y1047619D01*
X22771428Y1047619D01*
X22628571Y1095238D01*
X22533333Y1190476D01*
X22485714Y1285714D01*
X22438095Y1476190D01*
X22438095Y1619047D01*
X22485714Y1809523D01*
X22533333Y1904761D01*
X22628571Y2000000D01*
X22771428Y2047619D01*
X22866666Y2047619D01*
X23009523Y2000000D01*
X23057142Y1952380D01*
X24009523Y1047619D02*
X23438095Y1047619D01*
X23723809Y1047619D02*
X23723809Y2047619D01*
X23628571Y1904761D01*
X23533333Y1809523D01*
X23438095Y1761904D01*
X24914285Y2047619D02*
X24438095Y2047619D01*
X24390476Y1571428D01*
X24438095Y1619047D01*
X24533333Y1666666D01*
X24771428Y1666666D01*
X24866666Y1619047D01*
X24914285Y1571428D01*
X24961904Y1476190D01*
X24961904Y1238095D01*
X24914285Y1142857D01*
X24866666Y1095238D01*
X24771428Y1047619D01*
X24533333Y1047619D01*
X24438095Y1095238D01*
X24390476Y1142857D01*
X-1042857Y-6347142D02*
X-1090476Y-6394761D01*
X-1233333Y-6442380D01*
X-1328571Y-6442380D01*
X-1471428Y-6394761D01*
X-1566666Y-6299523D01*
X-1614285Y-6204285D01*
X-1661904Y-6013809D01*
X-1661904Y-5870952D01*
X-1614285Y-5680476D01*
X-1566666Y-5585238D01*
X-1471428Y-5490000D01*
X-1328571Y-5442380D01*
X-1233333Y-5442380D01*
X-1090476Y-5490000D01*
X-1042857Y-5537619D01*
X-90476Y-6442380D02*
X-661904Y-6442380D01*
X-376190Y-6442380D02*
X-376190Y-5442380D01*
X-471428Y-5585238D01*
X-566666Y-5680476D01*
X-661904Y-5728095D01*
X528571Y-5442380D02*
X623809Y-5442380D01*
X719047Y-5490000D01*
X766666Y-5537619D01*
X814285Y-5632857D01*
X861904Y-5823333D01*
X861904Y-6061428D01*
X814285Y-6251904D01*
X766666Y-6347142D01*
X719047Y-6394761D01*
X623809Y-6442380D01*
X528571Y-6442380D01*
X433333Y-6394761D01*
X385714Y-6347142D01*
X338095Y-6251904D01*
X290476Y-6061428D01*
X290476Y-5823333D01*
X338095Y-5632857D01*
X385714Y-5537619D01*
X433333Y-5490000D01*
X528571Y-5442380D01*
X1333333Y-12757142D02*
X1285714Y-12804761D01*
X1142857Y-12852380D01*
X1047619Y-12852380D01*
X904761Y-12804761D01*
X809523Y-12709523D01*
X761904Y-12614285D01*
X714285Y-12423809D01*
X714285Y-12280952D01*
X761904Y-12090476D01*
X809523Y-11995238D01*
X904761Y-11900000D01*
X1047619Y-11852380D01*
X1142857Y-11852380D01*
X1285714Y-11900000D01*
X1333333Y-11947619D01*
X1666666Y-11852380D02*
X2285714Y-11852380D01*
X1952380Y-12233333D01*
X2095238Y-12233333D01*
X2190476Y-12280952D01*
X2238095Y-12328571D01*
X2285714Y-12423809D01*
X2285714Y-12661904D01*
X2238095Y-12757142D01*
X2190476Y-12804761D01*
X2095238Y-12852380D01*
X1809523Y-12852380D01*
X1714285Y-12804761D01*
X1666666Y-12757142D01*
X23057142Y3597619D02*
X22723809Y4073809D01*
X22485714Y3597619D02*
X22485714Y4597619D01*
X22866666Y4597619D01*
X22961904Y4550000D01*
X23009523Y4502380D01*
X23057142Y4407142D01*
X23057142Y4264285D01*
X23009523Y4169047D01*
X22961904Y4121428D01*
X22866666Y4073809D01*
X22485714Y4073809D01*
X23438095Y4502380D02*
X23485714Y4550000D01*
X23580952Y4597619D01*
X23819047Y4597619D01*
X23914285Y4550000D01*
X23961904Y4502380D01*
X24009523Y4407142D01*
X24009523Y4311904D01*
X23961904Y4169047D01*
X23390476Y3597619D01*
X24009523Y3597619D01*
X24485714Y3597619D02*
X24676190Y3597619D01*
X24771428Y3645238D01*
X24819047Y3692857D01*
X24914285Y3835714D01*
X24961904Y4026190D01*
X24961904Y4407142D01*
X24914285Y4502380D01*
X24866666Y4550000D01*
X24771428Y4597619D01*
X24580952Y4597619D01*
X24485714Y4550000D01*
X24438095Y4502380D01*
X24390476Y4407142D01*
X24390476Y4169047D01*
X24438095Y4073809D01*
X24485714Y4026190D01*
X24580952Y3978571D01*
X24771428Y3978571D01*
X24866666Y4026190D01*
X24914285Y4073809D01*
X24961904Y4169047D01*
X6802380Y19157142D02*
X6326190Y18823809D01*
X6802380Y18585714D02*
X5802380Y18585714D01*
X5802380Y18966666D01*
X5850000Y19061904D01*
X5897619Y19109523D01*
X5992857Y19157142D01*
X6135714Y19157142D01*
X6230952Y19109523D01*
X6278571Y19061904D01*
X6326190Y18966666D01*
X6326190Y18585714D01*
X5897619Y19538095D02*
X5850000Y19585714D01*
X5802380Y19680952D01*
X5802380Y19919047D01*
X5850000Y20014285D01*
X5897619Y20061904D01*
X5992857Y20109523D01*
X6088095Y20109523D01*
X6230952Y20061904D01*
X6802380Y19490476D01*
X6802380Y20109523D01*
X6230952Y20680952D02*
X6183333Y20585714D01*
X6135714Y20538095D01*
X6040476Y20490476D01*
X5992857Y20490476D01*
X5897619Y20538095D01*
X5850000Y20585714D01*
X5802380Y20680952D01*
X5802380Y20871428D01*
X5850000Y20966666D01*
X5897619Y21014285D01*
X5992857Y21061904D01*
X6040476Y21061904D01*
X6135714Y21014285D01*
X6183333Y20966666D01*
X6230952Y20871428D01*
X6230952Y20680952D01*
X6278571Y20585714D01*
X6326190Y20538095D01*
X6421428Y20490476D01*
X6611904Y20490476D01*
X6707142Y20538095D01*
X6754761Y20585714D01*
X6802380Y20680952D01*
X6802380Y20871428D01*
X6754761Y20966666D01*
X6707142Y21014285D01*
X6611904Y21061904D01*
X6421428Y21061904D01*
X6326190Y21014285D01*
X6278571Y20966666D01*
X6230952Y20871428D01*
X8357142Y17197619D02*
X8023809Y17673809D01*
X7785714Y17197619D02*
X7785714Y18197619D01*
X8166666Y18197619D01*
X8261904Y18150000D01*
X8309523Y18102380D01*
X8357142Y18007142D01*
X8357142Y17864285D01*
X8309523Y17769047D01*
X8261904Y17721428D01*
X8166666Y17673809D01*
X7785714Y17673809D01*
X8738095Y18102380D02*
X8785714Y18150000D01*
X8880952Y18197619D01*
X9119047Y18197619D01*
X9214285Y18150000D01*
X9261904Y18102380D01*
X9309523Y18007142D01*
X9309523Y17911904D01*
X9261904Y17769047D01*
X8690476Y17197619D01*
X9309523Y17197619D01*
X9642857Y18197619D02*
X10309523Y18197619D01*
X9880952Y17197619D01*
X8102380Y19157142D02*
X7626190Y18823809D01*
X8102380Y18585714D02*
X7102380Y18585714D01*
X7102380Y18966666D01*
X7150000Y19061904D01*
X7197619Y19109523D01*
X7292857Y19157142D01*
X7435714Y19157142D01*
X7530952Y19109523D01*
X7578571Y19061904D01*
X7626190Y18966666D01*
X7626190Y18585714D01*
X7197619Y19538095D02*
X7150000Y19585714D01*
X7102380Y19680952D01*
X7102380Y19919047D01*
X7150000Y20014285D01*
X7197619Y20061904D01*
X7292857Y20109523D01*
X7388095Y20109523D01*
X7530952Y20061904D01*
X8102380Y19490476D01*
X8102380Y20109523D01*
X7102380Y20966666D02*
X7102380Y20776190D01*
X7150000Y20680952D01*
X7197619Y20633333D01*
X7340476Y20538095D01*
X7530952Y20490476D01*
X7911904Y20490476D01*
X8007142Y20538095D01*
X8054761Y20585714D01*
X8102380Y20680952D01*
X8102380Y20871428D01*
X8054761Y20966666D01*
X8007142Y21014285D01*
X7911904Y21061904D01*
X7673809Y21061904D01*
X7578571Y21014285D01*
X7530952Y20966666D01*
X7483333Y20871428D01*
X7483333Y20680952D01*
X7530952Y20585714D01*
X7578571Y20538095D01*
X7673809Y20490476D01*
X15002380Y19207142D02*
X14526190Y18873809D01*
X15002380Y18635714D02*
X14002380Y18635714D01*
X14002380Y19016666D01*
X14050000Y19111904D01*
X14097619Y19159523D01*
X14192857Y19207142D01*
X14335714Y19207142D01*
X14430952Y19159523D01*
X14478571Y19111904D01*
X14526190Y19016666D01*
X14526190Y18635714D01*
X14097619Y19588095D02*
X14050000Y19635714D01*
X14002380Y19730952D01*
X14002380Y19969047D01*
X14050000Y20064285D01*
X14097619Y20111904D01*
X14192857Y20159523D01*
X14288095Y20159523D01*
X14430952Y20111904D01*
X15002380Y19540476D01*
X15002380Y20159523D01*
X14002380Y21064285D02*
X14002380Y20588095D01*
X14478571Y20540476D01*
X14430952Y20588095D01*
X14383333Y20683333D01*
X14383333Y20921428D01*
X14430952Y21016666D01*
X14478571Y21064285D01*
X14573809Y21111904D01*
X14811904Y21111904D01*
X14907142Y21064285D01*
X14954761Y21016666D01*
X15002380Y20921428D01*
X15002380Y20683333D01*
X14954761Y20588095D01*
X14907142Y20540476D01*
X13702380Y19157142D02*
X13226190Y18823809D01*
X13702380Y18585714D02*
X12702380Y18585714D01*
X12702380Y18966666D01*
X12750000Y19061904D01*
X12797619Y19109523D01*
X12892857Y19157142D01*
X13035714Y19157142D01*
X13130952Y19109523D01*
X13178571Y19061904D01*
X13226190Y18966666D01*
X13226190Y18585714D01*
X12797619Y19538095D02*
X12750000Y19585714D01*
X12702380Y19680952D01*
X12702380Y19919047D01*
X12750000Y20014285D01*
X12797619Y20061904D01*
X12892857Y20109523D01*
X12988095Y20109523D01*
X13130952Y20061904D01*
X13702380Y19490476D01*
X13702380Y20109523D01*
X13035714Y20966666D02*
X13702380Y20966666D01*
X12654761Y20728571D02*
X13369047Y20490476D01*
X13369047Y21109523D01*
X23057142Y4897619D02*
X22723809Y5373809D01*
X22485714Y4897619D02*
X22485714Y5897619D01*
X22866666Y5897619D01*
X22961904Y5850000D01*
X23009523Y5802380D01*
X23057142Y5707142D01*
X23057142Y5564285D01*
X23009523Y5469047D01*
X22961904Y5421428D01*
X22866666Y5373809D01*
X22485714Y5373809D01*
X23438095Y5802380D02*
X23485714Y5850000D01*
X23580952Y5897619D01*
X23819047Y5897619D01*
X23914285Y5850000D01*
X23961904Y5802380D01*
X24009523Y5707142D01*
X24009523Y5611904D01*
X23961904Y5469047D01*
X23390476Y4897619D01*
X24009523Y4897619D01*
X24342857Y5897619D02*
X24961904Y5897619D01*
X24628571Y5516666D01*
X24771428Y5516666D01*
X24866666Y5469047D01*
X24914285Y5421428D01*
X24961904Y5326190D01*
X24961904Y5088095D01*
X24914285Y4992857D01*
X24866666Y4945238D01*
X24771428Y4897619D01*
X24485714Y4897619D01*
X24390476Y4945238D01*
X24342857Y4992857D01*
X23057142Y6247619D02*
X22723809Y6723809D01*
X22485714Y6247619D02*
X22485714Y7247619D01*
X22866666Y7247619D01*
X22961904Y7200000D01*
X23009523Y7152380D01*
X23057142Y7057142D01*
X23057142Y6914285D01*
X23009523Y6819047D01*
X22961904Y6771428D01*
X22866666Y6723809D01*
X22485714Y6723809D01*
X23438095Y7152380D02*
X23485714Y7200000D01*
X23580952Y7247619D01*
X23819047Y7247619D01*
X23914285Y7200000D01*
X23961904Y7152380D01*
X24009523Y7057142D01*
X24009523Y6961904D01*
X23961904Y6819047D01*
X23390476Y6247619D01*
X24009523Y6247619D01*
X24961904Y6247619D02*
X24390476Y6247619D01*
X24676190Y6247619D02*
X24676190Y7247619D01*
X24580952Y7104761D01*
X24485714Y7009523D01*
X24390476Y6961904D01*
X23057142Y7597619D02*
X22723809Y8073809D01*
X22485714Y7597619D02*
X22485714Y8597619D01*
X22866666Y8597619D01*
X22961904Y8550000D01*
X23009523Y8502380D01*
X23057142Y8407142D01*
X23057142Y8264285D01*
X23009523Y8169047D01*
X22961904Y8121428D01*
X22866666Y8073809D01*
X22485714Y8073809D01*
X24009523Y7597619D02*
X23438095Y7597619D01*
X23723809Y7597619D02*
X23723809Y8597619D01*
X23628571Y8454761D01*
X23533333Y8359523D01*
X23438095Y8311904D01*
X24390476Y8502380D02*
X24438095Y8550000D01*
X24533333Y8597619D01*
X24771428Y8597619D01*
X24866666Y8550000D01*
X24914285Y8502380D01*
X24961904Y8407142D01*
X24961904Y8311904D01*
X24914285Y8169047D01*
X24342857Y7597619D01*
X24961904Y7597619D01*
X22752380Y-7942857D02*
X22276190Y-8276190D01*
X22752380Y-8514285D02*
X21752380Y-8514285D01*
X21752380Y-8133333D01*
X21800000Y-8038095D01*
X21847619Y-7990476D01*
X21942857Y-7942857D01*
X22085714Y-7942857D01*
X22180952Y-7990476D01*
X22228571Y-8038095D01*
X22276190Y-8133333D01*
X22276190Y-8514285D01*
X22752380Y-6990476D02*
X22752380Y-7561904D01*
X22752380Y-7276190D02*
X21752380Y-7276190D01*
X21895238Y-7371428D01*
X21990476Y-7466666D01*
X22038095Y-7561904D01*
X22752380Y-6038095D02*
X22752380Y-6609523D01*
X22752380Y-6323809D02*
X21752380Y-6323809D01*
X21895238Y-6419047D01*
X21990476Y-6514285D01*
X22038095Y-6609523D01*
X23057142Y2442857D02*
X23009523Y2395238D01*
X22866666Y2347619D01*
X22771428Y2347619D01*
X22628571Y2395238D01*
X22533333Y2490476D01*
X22485714Y2585714D01*
X22438095Y2776190D01*
X22438095Y2919047D01*
X22485714Y3109523D01*
X22533333Y3204761D01*
X22628571Y3300000D01*
X22771428Y3347619D01*
X22866666Y3347619D01*
X23009523Y3300000D01*
X23057142Y3252380D01*
X24009523Y2347619D02*
X23438095Y2347619D01*
X23723809Y2347619D02*
X23723809Y3347619D01*
X23628571Y3204761D01*
X23533333Y3109523D01*
X23438095Y3061904D01*
X24866666Y3347619D02*
X24676190Y3347619D01*
X24580952Y3300000D01*
X24533333Y3252380D01*
X24438095Y3109523D01*
X24390476Y2919047D01*
X24390476Y2538095D01*
X24438095Y2442857D01*
X24485714Y2395238D01*
X24580952Y2347619D01*
X24771428Y2347619D01*
X24866666Y2395238D01*
X24914285Y2442857D01*
X24961904Y2538095D01*
X24961904Y2776190D01*
X24914285Y2871428D01*
X24866666Y2919047D01*
X24771428Y2966666D01*
X24580952Y2966666D01*
X24485714Y2919047D01*
X24438095Y2871428D01*
X24390476Y2776190D01*
X12707142Y392857D02*
X12659523Y345238D01*
X12516666Y297619D01*
X12421428Y297619D01*
X12278571Y345238D01*
X12183333Y440476D01*
X12135714Y535714D01*
X12088095Y726190D01*
X12088095Y869047D01*
X12135714Y1059523D01*
X12183333Y1154761D01*
X12278571Y1250000D01*
X12421428Y1297619D01*
X12516666Y1297619D01*
X12659523Y1250000D01*
X12707142Y1202380D01*
X13659523Y297619D02*
X13088095Y297619D01*
X13373809Y297619D02*
X13373809Y1297619D01*
X13278571Y1154761D01*
X13183333Y1059523D01*
X13088095Y1011904D01*
X14516666Y964285D02*
X14516666Y297619D01*
X14278571Y1345238D02*
X14040476Y630952D01*
X14659523Y630952D01*
X14397142Y12807142D02*
X14444761Y12759523D01*
X14492380Y12616666D01*
X14492380Y12521428D01*
X14444761Y12378571D01*
X14349523Y12283333D01*
X14254285Y12235714D01*
X14063809Y12188095D01*
X13920952Y12188095D01*
X13730476Y12235714D01*
X13635238Y12283333D01*
X13540000Y12378571D01*
X13492380Y12521428D01*
X13492380Y12616666D01*
X13540000Y12759523D01*
X13587619Y12807142D01*
X14492380Y13759523D02*
X14492380Y13188095D01*
X14492380Y13473809D02*
X13492380Y13473809D01*
X13635238Y13378571D01*
X13730476Y13283333D01*
X13778095Y13188095D01*
X13492380Y14092857D02*
X13492380Y14711904D01*
X13873333Y14378571D01*
X13873333Y14521428D01*
X13920952Y14616666D01*
X13968571Y14664285D01*
X14063809Y14711904D01*
X14301904Y14711904D01*
X14397142Y14664285D01*
X14444761Y14616666D01*
X14492380Y14521428D01*
X14492380Y14235714D01*
X14444761Y14140476D01*
X14397142Y14092857D01*
X-8847619Y-12961904D02*
X-8038095Y-12961904D01*
X-7942857Y-12914285D01*
X-7895238Y-12866666D01*
X-7847619Y-12771428D01*
X-7847619Y-12580952D01*
X-7895238Y-12485714D01*
X-7942857Y-12438095D01*
X-8038095Y-12390476D01*
X-8847619Y-12390476D01*
X-8514285Y-11485714D02*
X-7847619Y-11485714D01*
X-8895238Y-11723809D02*
X-8180952Y-11961904D01*
X-8180952Y-11342857D01*
X-13088857Y-6707142D02*
X-13136476Y-6754761D01*
X-13279333Y-6802380D01*
X-13374571Y-6802380D01*
X-13517428Y-6754761D01*
X-13612666Y-6659523D01*
X-13660285Y-6564285D01*
X-13707904Y-6373809D01*
X-13707904Y-6230952D01*
X-13660285Y-6040476D01*
X-13612666Y-5945238D01*
X-13517428Y-5850000D01*
X-13374571Y-5802380D01*
X-13279333Y-5802380D01*
X-13136476Y-5850000D01*
X-13088857Y-5897619D01*
X-12136476Y-6802380D02*
X-12707904Y-6802380D01*
X-12422190Y-6802380D02*
X-12422190Y-5802380D01*
X-12517428Y-5945238D01*
X-12612666Y-6040476D01*
X-12707904Y-6088095D01*
X-11755523Y-5897619D02*
X-11707904Y-5850000D01*
X-11612666Y-5802380D01*
X-11374571Y-5802380D01*
X-11279333Y-5850000D01*
X-11231714Y-5897619D01*
X-11184095Y-5992857D01*
X-11184095Y-6088095D01*
X-11231714Y-6230952D01*
X-11803142Y-6802380D01*
X-11184095Y-6802380D01*
X-10239333Y-17675880D02*
X-10239333Y-18390166D01*
X-10286952Y-18533023D01*
X-10382190Y-18628261D01*
X-10525047Y-18675880D01*
X-10620285Y-18675880D01*
X-9239333Y-18675880D02*
X-9810761Y-18675880D01*
X-9525047Y-18675880D02*
X-9525047Y-17675880D01*
X-9620285Y-17818738D01*
X-9715523Y-17913976D01*
X-9810761Y-17961595D01*
X-2246380Y-7715238D02*
X-2294000Y-7810476D01*
X-2389238Y-7905714D01*
X-2532095Y-8048571D01*
X-2579714Y-8143809D01*
X-2579714Y-8239047D01*
X-2341619Y-8191428D02*
X-2389238Y-8286666D01*
X-2484476Y-8381904D01*
X-2674952Y-8429523D01*
X-3008285Y-8429523D01*
X-3198761Y-8381904D01*
X-3294000Y-8286666D01*
X-3341619Y-8191428D01*
X-3341619Y-8000952D01*
X-3294000Y-7905714D01*
X-3198761Y-7810476D01*
X-3008285Y-7762857D01*
X-2674952Y-7762857D01*
X-2484476Y-7810476D01*
X-2389238Y-7905714D01*
X-2341619Y-8000952D01*
X-2341619Y-8191428D01*
X-3341619Y-6858095D02*
X-3341619Y-7334285D01*
X-2865428Y-7381904D01*
X-2913047Y-7334285D01*
X-2960666Y-7239047D01*
X-2960666Y-7000952D01*
X-2913047Y-6905714D01*
X-2865428Y-6858095D01*
X-2770190Y-6810476D01*
X-2532095Y-6810476D01*
X-2436857Y-6858095D01*
X-2389238Y-6905714D01*
X-2341619Y-7000952D01*
X-2341619Y-7239047D01*
X-2389238Y-7334285D01*
X-2436857Y-7381904D01*
X-2246380Y-11271238D02*
X-2294000Y-11366476D01*
X-2389238Y-11461714D01*
X-2532095Y-11604571D01*
X-2579714Y-11699809D01*
X-2579714Y-11795047D01*
X-2341619Y-11747428D02*
X-2389238Y-11842666D01*
X-2484476Y-11937904D01*
X-2674952Y-11985523D01*
X-3008285Y-11985523D01*
X-3198761Y-11937904D01*
X-3294000Y-11842666D01*
X-3341619Y-11747428D01*
X-3341619Y-11556952D01*
X-3294000Y-11461714D01*
X-3198761Y-11366476D01*
X-3008285Y-11318857D01*
X-2674952Y-11318857D01*
X-2484476Y-11366476D01*
X-2389238Y-11461714D01*
X-2341619Y-11556952D01*
X-2341619Y-11747428D01*
X-3008285Y-10461714D02*
X-2341619Y-10461714D01*
X-3389238Y-10699809D02*
X-2674952Y-10937904D01*
X-2674952Y-10318857D01*
X23157142Y-1152380D02*
X22823809Y-676190D01*
X22585714Y-1152380D02*
X22585714Y-152380D01*
X22966666Y-152380D01*
X23061904Y-200000D01*
X23109523Y-247619D01*
X23157142Y-342857D01*
X23157142Y-485714D01*
X23109523Y-580952D01*
X23061904Y-628571D01*
X22966666Y-676190D01*
X22585714Y-676190D01*
X24109523Y-1152380D02*
X23538095Y-1152380D01*
X23823809Y-1152380D02*
X23823809Y-152380D01*
X23728571Y-295238D01*
X23633333Y-390476D01*
X23538095Y-438095D01*
X24442857Y-152380D02*
X25109523Y-152380D01*
X24680952Y-1152380D01*
X576666Y-10458571D02*
X243333Y-10458571D01*
X243333Y-10982380D02*
X243333Y-9982380D01*
X719523Y-9982380D01*
X1433809Y-10458571D02*
X1576666Y-10506190D01*
X1624285Y-10553809D01*
X1671904Y-10649047D01*
X1671904Y-10791904D01*
X1624285Y-10887142D01*
X1576666Y-10934761D01*
X1481428Y-10982380D01*
X1100476Y-10982380D01*
X1100476Y-9982380D01*
X1433809Y-9982380D01*
X1529047Y-10030000D01*
X1576666Y-10077619D01*
X1624285Y-10172857D01*
X1624285Y-10268095D01*
X1576666Y-10363333D01*
X1529047Y-10410952D01*
X1433809Y-10458571D01*
X1100476Y-10458571D01*
X2052857Y-10077619D02*
X2100476Y-10030000D01*
X2195714Y-9982380D01*
X2433809Y-9982380D01*
X2529047Y-10030000D01*
X2576666Y-10077619D01*
X2624285Y-10172857D01*
X2624285Y-10268095D01*
X2576666Y-10410952D01*
X2005238Y-10982380D01*
X2624285Y-10982380D01*
X-3247619Y3557142D02*
X-3723809Y3223809D01*
X-3247619Y2985714D02*
X-4247619Y2985714D01*
X-4247619Y3366666D01*
X-4200000Y3461904D01*
X-4152380Y3509523D01*
X-4057142Y3557142D01*
X-3914285Y3557142D01*
X-3819047Y3509523D01*
X-3771428Y3461904D01*
X-3723809Y3366666D01*
X-3723809Y2985714D01*
X-4152380Y3938095D02*
X-4200000Y3985714D01*
X-4247619Y4080952D01*
X-4247619Y4319047D01*
X-4200000Y4414285D01*
X-4152380Y4461904D01*
X-4057142Y4509523D01*
X-3961904Y4509523D01*
X-3819047Y4461904D01*
X-3247619Y3890476D01*
X-3247619Y4509523D01*
X-4152380Y4890476D02*
X-4200000Y4938095D01*
X-4247619Y5033333D01*
X-4247619Y5271428D01*
X-4200000Y5366666D01*
X-4152380Y5414285D01*
X-4057142Y5461904D01*
X-3961904Y5461904D01*
X-3819047Y5414285D01*
X-3247619Y4842857D01*
X-3247619Y5461904D01*
X-16861904Y-4352380D02*
X-16861904Y-5161904D01*
X-16814285Y-5257142D01*
X-16766666Y-5304761D01*
X-16671428Y-5352380D01*
X-16480952Y-5352380D01*
X-16385714Y-5304761D01*
X-16338095Y-5257142D01*
X-16290476Y-5161904D01*
X-16290476Y-4352380D01*
X-15861904Y-4447619D02*
X-15814285Y-4400000D01*
X-15719047Y-4352380D01*
X-15480952Y-4352380D01*
X-15385714Y-4400000D01*
X-15338095Y-4447619D01*
X-15290476Y-4542857D01*
X-15290476Y-4638095D01*
X-15338095Y-4780952D01*
X-15909523Y-5352380D01*
X-15290476Y-5352380D01*
X2952380Y-19911904D02*
X3761904Y-19911904D01*
X3857142Y-19864285D01*
X3904761Y-19816666D01*
X3952380Y-19721428D01*
X3952380Y-19530952D01*
X3904761Y-19435714D01*
X3857142Y-19388095D01*
X3761904Y-19340476D01*
X2952380Y-19340476D01*
X3952380Y-18340476D02*
X3952380Y-18911904D01*
X3952380Y-18626190D02*
X2952380Y-18626190D01*
X3095238Y-18721428D01*
X3190476Y-18816666D01*
X3238095Y-18911904D01*
X-20615238Y-10383333D02*
X-20567619Y-10240476D01*
X-20567619Y-10002380D01*
X-20615238Y-9907142D01*
X-20662857Y-9859523D01*
X-20758095Y-9811904D01*
X-20853333Y-9811904D01*
X-20948571Y-9859523D01*
X-20996190Y-9907142D01*
X-21043809Y-10002380D01*
X-21091428Y-10192857D01*
X-21139047Y-10288095D01*
X-21186666Y-10335714D01*
X-21281904Y-10383333D01*
X-21377142Y-10383333D01*
X-21472380Y-10335714D01*
X-21520000Y-10288095D01*
X-21567619Y-10192857D01*
X-21567619Y-9954761D01*
X-21520000Y-9811904D01*
X-21567619Y-9478571D02*
X-20567619Y-9240476D01*
X-21281904Y-9050000D01*
X-20567619Y-8859523D01*
X-21567619Y-8621428D01*
X-20567619Y-7716666D02*
X-20567619Y-8288095D01*
X-20567619Y-8002380D02*
X-21567619Y-8002380D01*
X-21424761Y-8097619D01*
X-21329523Y-8192857D01*
X-21281904Y-8288095D01*
X10757142Y15147619D02*
X10423809Y15623809D01*
X10185714Y15147619D02*
X10185714Y16147619D01*
X10566666Y16147619D01*
X10661904Y16100000D01*
X10709523Y16052380D01*
X10757142Y15957142D01*
X10757142Y15814285D01*
X10709523Y15719047D01*
X10661904Y15671428D01*
X10566666Y15623809D01*
X10185714Y15623809D01*
X11138095Y16052380D02*
X11185714Y16100000D01*
X11280952Y16147619D01*
X11519047Y16147619D01*
X11614285Y16100000D01*
X11661904Y16052380D01*
X11709523Y15957142D01*
X11709523Y15861904D01*
X11661904Y15719047D01*
X11090476Y15147619D01*
X11709523Y15147619D01*
X12328571Y16147619D02*
X12423809Y16147619D01*
X12519047Y16100000D01*
X12566666Y16052380D01*
X12614285Y15957142D01*
X12661904Y15766666D01*
X12661904Y15528571D01*
X12614285Y15338095D01*
X12566666Y15242857D01*
X12519047Y15195238D01*
X12423809Y15147619D01*
X12328571Y15147619D01*
X12233333Y15195238D01*
X12185714Y15242857D01*
X12138095Y15338095D01*
X12090476Y15528571D01*
X12090476Y15766666D01*
X12138095Y15957142D01*
X12185714Y16052380D01*
X12233333Y16100000D01*
X12328571Y16147619D01*
X10757142Y12647619D02*
X10423809Y13123809D01*
X10185714Y12647619D02*
X10185714Y13647619D01*
X10566666Y13647619D01*
X10661904Y13600000D01*
X10709523Y13552380D01*
X10757142Y13457142D01*
X10757142Y13314285D01*
X10709523Y13219047D01*
X10661904Y13171428D01*
X10566666Y13123809D01*
X10185714Y13123809D01*
X11709523Y12647619D02*
X11138095Y12647619D01*
X11423809Y12647619D02*
X11423809Y13647619D01*
X11328571Y13504761D01*
X11233333Y13409523D01*
X11138095Y13361904D01*
X12185714Y12647619D02*
X12376190Y12647619D01*
X12471428Y12695238D01*
X12519047Y12742857D01*
X12614285Y12885714D01*
X12661904Y13076190D01*
X12661904Y13457142D01*
X12614285Y13552380D01*
X12566666Y13600000D01*
X12471428Y13647619D01*
X12280952Y13647619D01*
X12185714Y13600000D01*
X12138095Y13552380D01*
X12090476Y13457142D01*
X12090476Y13219047D01*
X12138095Y13123809D01*
X12185714Y13076190D01*
X12280952Y13028571D01*
X12471428Y13028571D01*
X12566666Y13076190D01*
X12614285Y13123809D01*
X12661904Y13219047D01*
X10757142Y13897619D02*
X10423809Y14373809D01*
X10185714Y13897619D02*
X10185714Y14897619D01*
X10566666Y14897619D01*
X10661904Y14850000D01*
X10709523Y14802380D01*
X10757142Y14707142D01*
X10757142Y14564285D01*
X10709523Y14469047D01*
X10661904Y14421428D01*
X10566666Y14373809D01*
X10185714Y14373809D01*
X11709523Y13897619D02*
X11138095Y13897619D01*
X11423809Y13897619D02*
X11423809Y14897619D01*
X11328571Y14754761D01*
X11233333Y14659523D01*
X11138095Y14611904D01*
X12280952Y14469047D02*
X12185714Y14516666D01*
X12138095Y14564285D01*
X12090476Y14659523D01*
X12090476Y14707142D01*
X12138095Y14802380D01*
X12185714Y14850000D01*
X12280952Y14897619D01*
X12471428Y14897619D01*
X12566666Y14850000D01*
X12614285Y14802380D01*
X12661904Y14707142D01*
X12661904Y14659523D01*
X12614285Y14564285D01*
X12566666Y14516666D01*
X12471428Y14469047D01*
X12280952Y14469047D01*
X12185714Y14421428D01*
X12138095Y14373809D01*
X12090476Y14278571D01*
X12090476Y14088095D01*
X12138095Y13992857D01*
X12185714Y13945238D01*
X12280952Y13897619D01*
X12471428Y13897619D01*
X12566666Y13945238D01*
X12614285Y13992857D01*
X12661904Y14088095D01*
X12661904Y14278571D01*
X12614285Y14373809D01*
X12566666Y14421428D01*
X12471428Y14469047D01*
X5657142Y-2802380D02*
X5323809Y-2326190D01*
X5085714Y-2802380D02*
X5085714Y-1802380D01*
X5466666Y-1802380D01*
X5561904Y-1850000D01*
X5609523Y-1897619D01*
X5657142Y-1992857D01*
X5657142Y-2135714D01*
X5609523Y-2230952D01*
X5561904Y-2278571D01*
X5466666Y-2326190D01*
X5085714Y-2326190D01*
X6609523Y-2802380D02*
X6038095Y-2802380D01*
X6323809Y-2802380D02*
X6323809Y-1802380D01*
X6228571Y-1945238D01*
X6133333Y-2040476D01*
X6038095Y-2088095D01*
X7466666Y-1802380D02*
X7276190Y-1802380D01*
X7180952Y-1850000D01*
X7133333Y-1897619D01*
X7038095Y-2040476D01*
X6990476Y-2230952D01*
X6990476Y-2611904D01*
X7038095Y-2707142D01*
X7085714Y-2754761D01*
X7180952Y-2802380D01*
X7371428Y-2802380D01*
X7466666Y-2754761D01*
X7514285Y-2707142D01*
X7561904Y-2611904D01*
X7561904Y-2373809D01*
X7514285Y-2278571D01*
X7466666Y-2230952D01*
X7371428Y-2183333D01*
X7180952Y-2183333D01*
X7085714Y-2230952D01*
X7038095Y-2278571D01*
X6990476Y-2373809D01*
X6307142Y-1552380D02*
X5973809Y-1076190D01*
X5735714Y-1552380D02*
X5735714Y-552380D01*
X6116666Y-552380D01*
X6211904Y-600000D01*
X6259523Y-647619D01*
X6307142Y-742857D01*
X6307142Y-885714D01*
X6259523Y-980952D01*
X6211904Y-1028571D01*
X6116666Y-1076190D01*
X5735714Y-1076190D01*
X7259523Y-1552380D02*
X6688095Y-1552380D01*
X6973809Y-1552380D02*
X6973809Y-552380D01*
X6878571Y-695238D01*
X6783333Y-790476D01*
X6688095Y-838095D01*
X8164285Y-552380D02*
X7688095Y-552380D01*
X7640476Y-1028571D01*
X7688095Y-980952D01*
X7783333Y-933333D01*
X8021428Y-933333D01*
X8116666Y-980952D01*
X8164285Y-1028571D01*
X8211904Y-1123809D01*
X8211904Y-1361904D01*
X8164285Y-1457142D01*
X8116666Y-1504761D01*
X8021428Y-1552380D01*
X7783333Y-1552380D01*
X7688095Y-1504761D01*
X7640476Y-1457142D01*
X12657142Y-1002380D02*
X12323809Y-526190D01*
X12085714Y-1002380D02*
X12085714Y-2380D01*
X12466666Y-2380D01*
X12561904Y-50000D01*
X12609523Y-97619D01*
X12657142Y-192857D01*
X12657142Y-335714D01*
X12609523Y-430952D01*
X12561904Y-478571D01*
X12466666Y-526190D01*
X12085714Y-526190D01*
X13609523Y-1002380D02*
X13038095Y-1002380D01*
X13323809Y-1002380D02*
X13323809Y-2380D01*
X13228571Y-145238D01*
X13133333Y-240476D01*
X13038095Y-288095D01*
X14466666Y-335714D02*
X14466666Y-1002380D01*
X14228571Y45238D02*
X13990476Y-669047D01*
X14609523Y-669047D01*
X18707142Y-2802380D02*
X18373809Y-2326190D01*
X18135714Y-2802380D02*
X18135714Y-1802380D01*
X18516666Y-1802380D01*
X18611904Y-1850000D01*
X18659523Y-1897619D01*
X18707142Y-1992857D01*
X18707142Y-2135714D01*
X18659523Y-2230952D01*
X18611904Y-2278571D01*
X18516666Y-2326190D01*
X18135714Y-2326190D01*
X19659523Y-2802380D02*
X19088095Y-2802380D01*
X19373809Y-2802380D02*
X19373809Y-1802380D01*
X19278571Y-1945238D01*
X19183333Y-2040476D01*
X19088095Y-2088095D01*
X19992857Y-1802380D02*
X20611904Y-1802380D01*
X20278571Y-2183333D01*
X20421428Y-2183333D01*
X20516666Y-2230952D01*
X20564285Y-2278571D01*
X20611904Y-2373809D01*
X20611904Y-2611904D01*
X20564285Y-2707142D01*
X20516666Y-2754761D01*
X20421428Y-2802380D01*
X20135714Y-2802380D01*
X20040476Y-2754761D01*
X19992857Y-2707142D01*
X7052380Y1607142D02*
X6576190Y1273809D01*
X7052380Y1035714D02*
X6052380Y1035714D01*
X6052380Y1416666D01*
X6100000Y1511904D01*
X6147619Y1559523D01*
X6242857Y1607142D01*
X6385714Y1607142D01*
X6480952Y1559523D01*
X6528571Y1511904D01*
X6576190Y1416666D01*
X6576190Y1035714D01*
X7052380Y2559523D02*
X7052380Y1988095D01*
X7052380Y2273809D02*
X6052380Y2273809D01*
X6195238Y2178571D01*
X6290476Y2083333D01*
X6338095Y1988095D01*
X6052380Y3178571D02*
X6052380Y3273809D01*
X6100000Y3369047D01*
X6147619Y3416666D01*
X6242857Y3464285D01*
X6433333Y3511904D01*
X6671428Y3511904D01*
X6861904Y3464285D01*
X6957142Y3416666D01*
X7004761Y3369047D01*
X7052380Y3273809D01*
X7052380Y3178571D01*
X7004761Y3083333D01*
X6957142Y3035714D01*
X6861904Y2988095D01*
X6671428Y2940476D01*
X6433333Y2940476D01*
X6242857Y2988095D01*
X6147619Y3035714D01*
X6100000Y3083333D01*
X6052380Y3178571D01*
X-3876666Y13017619D02*
X-4210000Y13493809D01*
X-4448095Y13017619D02*
X-4448095Y14017619D01*
X-4067142Y14017619D01*
X-3971904Y13970000D01*
X-3924285Y13922380D01*
X-3876666Y13827142D01*
X-3876666Y13684285D01*
X-3924285Y13589047D01*
X-3971904Y13541428D01*
X-4067142Y13493809D01*
X-4448095Y13493809D01*
X-3400476Y13017619D02*
X-3210000Y13017619D01*
X-3114761Y13065238D01*
X-3067142Y13112857D01*
X-2971904Y13255714D01*
X-2924285Y13446190D01*
X-2924285Y13827142D01*
X-2971904Y13922380D01*
X-3019523Y13970000D01*
X-3114761Y14017619D01*
X-3305238Y14017619D01*
X-3400476Y13970000D01*
X-3448095Y13922380D01*
X-3495714Y13827142D01*
X-3495714Y13589047D01*
X-3448095Y13493809D01*
X-3400476Y13446190D01*
X-3305238Y13398571D01*
X-3114761Y13398571D01*
X-3019523Y13446190D01*
X-2971904Y13493809D01*
X-2924285Y13589047D01*
X-17047619Y-7566666D02*
X-17523809Y-7900000D01*
X-17047619Y-8138095D02*
X-18047619Y-8138095D01*
X-18047619Y-7757142D01*
X-18000000Y-7661904D01*
X-17952380Y-7614285D01*
X-17857142Y-7566666D01*
X-17714285Y-7566666D01*
X-17619047Y-7614285D01*
X-17571428Y-7661904D01*
X-17523809Y-7757142D01*
X-17523809Y-8138095D01*
X-17619047Y-6995238D02*
X-17666666Y-7090476D01*
X-17714285Y-7138095D01*
X-17809523Y-7185714D01*
X-17857142Y-7185714D01*
X-17952380Y-7138095D01*
X-18000000Y-7090476D01*
X-18047619Y-6995238D01*
X-18047619Y-6804761D01*
X-18000000Y-6709523D01*
X-17952380Y-6661904D01*
X-17857142Y-6614285D01*
X-17809523Y-6614285D01*
X-17714285Y-6661904D01*
X-17666666Y-6709523D01*
X-17619047Y-6804761D01*
X-17619047Y-6995238D01*
X-17571428Y-7090476D01*
X-17523809Y-7138095D01*
X-17428571Y-7185714D01*
X-17238095Y-7185714D01*
X-17142857Y-7138095D01*
X-17095238Y-7090476D01*
X-17047619Y-6995238D01*
X-17047619Y-6804761D01*
X-17095238Y-6709523D01*
X-17142857Y-6661904D01*
X-17238095Y-6614285D01*
X-17428571Y-6614285D01*
X-17523809Y-6661904D01*
X-17571428Y-6709523D01*
X-17619047Y-6804761D01*
X-3866666Y9217619D02*
X-4200000Y9693809D01*
X-4438095Y9217619D02*
X-4438095Y10217619D01*
X-4057142Y10217619D01*
X-3961904Y10170000D01*
X-3914285Y10122380D01*
X-3866666Y10027142D01*
X-3866666Y9884285D01*
X-3914285Y9789047D01*
X-3961904Y9741428D01*
X-4057142Y9693809D01*
X-4438095Y9693809D01*
X-3533333Y10217619D02*
X-2866666Y10217619D01*
X-3295238Y9217619D01*
X-2666666Y6847619D02*
X-3000000Y7323809D01*
X-3238095Y6847619D02*
X-3238095Y7847619D01*
X-2857142Y7847619D01*
X-2761904Y7800000D01*
X-2714285Y7752380D01*
X-2666666Y7657142D01*
X-2666666Y7514285D01*
X-2714285Y7419047D01*
X-2761904Y7371428D01*
X-2857142Y7323809D01*
X-3238095Y7323809D01*
X-1809523Y7847619D02*
X-2000000Y7847619D01*
X-2095238Y7800000D01*
X-2142857Y7752380D01*
X-2238095Y7609523D01*
X-2285714Y7419047D01*
X-2285714Y7038095D01*
X-2238095Y6942857D01*
X-2190476Y6895238D01*
X-2095238Y6847619D01*
X-1904761Y6847619D01*
X-1809523Y6895238D01*
X-1761904Y6942857D01*
X-1714285Y7038095D01*
X-1714285Y7276190D01*
X-1761904Y7371428D01*
X-1809523Y7419047D01*
X-1904761Y7466666D01*
X-2095238Y7466666D01*
X-2190476Y7419047D01*
X-2238095Y7371428D01*
X-2285714Y7276190D01*
X-2547619Y233333D02*
X-3023809Y-100000D01*
X-2547619Y-338095D02*
X-3547619Y-338095D01*
X-3547619Y42857D01*
X-3500000Y138095D01*
X-3452380Y185714D01*
X-3357142Y233333D01*
X-3214285Y233333D01*
X-3119047Y185714D01*
X-3071428Y138095D01*
X-3023809Y42857D01*
X-3023809Y-338095D01*
X-3547619Y1138095D02*
X-3547619Y661904D01*
X-3071428Y614285D01*
X-3119047Y661904D01*
X-3166666Y757142D01*
X-3166666Y995238D01*
X-3119047Y1090476D01*
X-3071428Y1138095D01*
X-2976190Y1185714D01*
X-2738095Y1185714D01*
X-2642857Y1138095D01*
X-2595238Y1090476D01*
X-2547619Y995238D01*
X-2547619Y757142D01*
X-2595238Y661904D01*
X-2642857Y614285D01*
X2983333Y3997619D02*
X2650000Y4473809D01*
X2411904Y3997619D02*
X2411904Y4997619D01*
X2792857Y4997619D01*
X2888095Y4950000D01*
X2935714Y4902380D01*
X2983333Y4807142D01*
X2983333Y4664285D01*
X2935714Y4569047D01*
X2888095Y4521428D01*
X2792857Y4473809D01*
X2411904Y4473809D01*
X3840476Y4664285D02*
X3840476Y3997619D01*
X3602380Y5045238D02*
X3364285Y4330952D01*
X3983333Y4330952D01*
X5802380Y1633333D02*
X5326190Y1300000D01*
X5802380Y1061904D02*
X4802380Y1061904D01*
X4802380Y1442857D01*
X4850000Y1538095D01*
X4897619Y1585714D01*
X4992857Y1633333D01*
X5135714Y1633333D01*
X5230952Y1585714D01*
X5278571Y1538095D01*
X5326190Y1442857D01*
X5326190Y1061904D01*
X4802380Y1966666D02*
X4802380Y2585714D01*
X5183333Y2252380D01*
X5183333Y2395238D01*
X5230952Y2490476D01*
X5278571Y2538095D01*
X5373809Y2585714D01*
X5611904Y2585714D01*
X5707142Y2538095D01*
X5754761Y2490476D01*
X5802380Y2395238D01*
X5802380Y2109523D01*
X5754761Y2014285D01*
X5707142Y1966666D01*
X-12358666Y-5532380D02*
X-12692000Y-5056190D01*
X-12930095Y-5532380D02*
X-12930095Y-4532380D01*
X-12549142Y-4532380D01*
X-12453904Y-4580000D01*
X-12406285Y-4627619D01*
X-12358666Y-4722857D01*
X-12358666Y-4865714D01*
X-12406285Y-4960952D01*
X-12453904Y-5008571D01*
X-12549142Y-5056190D01*
X-12930095Y-5056190D01*
X-11977714Y-4627619D02*
X-11930095Y-4580000D01*
X-11834857Y-4532380D01*
X-11596761Y-4532380D01*
X-11501523Y-4580000D01*
X-11453904Y-4627619D01*
X-11406285Y-4722857D01*
X-11406285Y-4818095D01*
X-11453904Y-4960952D01*
X-12025333Y-5532380D01*
X-11406285Y-5532380D01*
X1832380Y17543333D02*
X1356190Y17210000D01*
X1832380Y16971904D02*
X832380Y16971904D01*
X832380Y17352857D01*
X880000Y17448095D01*
X927619Y17495714D01*
X1022857Y17543333D01*
X1165714Y17543333D01*
X1260952Y17495714D01*
X1308571Y17448095D01*
X1356190Y17352857D01*
X1356190Y16971904D01*
X1832380Y18495714D02*
X1832380Y17924285D01*
X1832380Y18210000D02*
X832380Y18210000D01*
X975238Y18114761D01*
X1070476Y18019523D01*
X1118095Y17924285D01*
X3597619Y13754761D02*
X3550000Y13659523D01*
X3454761Y13564285D01*
X3311904Y13421428D01*
X3264285Y13326190D01*
X3264285Y13230952D01*
X3502380Y13278571D02*
X3454761Y13183333D01*
X3359523Y13088095D01*
X3169047Y13040476D01*
X2835714Y13040476D01*
X2645238Y13088095D01*
X2550000Y13183333D01*
X2502380Y13278571D01*
X2502380Y13469047D01*
X2550000Y13564285D01*
X2645238Y13659523D01*
X2835714Y13707142D01*
X3169047Y13707142D01*
X3359523Y13659523D01*
X3454761Y13564285D01*
X3502380Y13469047D01*
X3502380Y13278571D01*
X2502380Y14040476D02*
X2502380Y14659523D01*
X2883333Y14326190D01*
X2883333Y14469047D01*
X2930952Y14564285D01*
X2978571Y14611904D01*
X3073809Y14659523D01*
X3311904Y14659523D01*
X3407142Y14611904D01*
X3454761Y14564285D01*
X3502380Y14469047D01*
X3502380Y14183333D01*
X3454761Y14088095D01*
X3407142Y14040476D01*
X3547619Y6504761D02*
X3500000Y6409523D01*
X3404761Y6314285D01*
X3261904Y6171428D01*
X3214285Y6076190D01*
X3214285Y5980952D01*
X3452380Y6028571D02*
X3404761Y5933333D01*
X3309523Y5838095D01*
X3119047Y5790476D01*
X2785714Y5790476D01*
X2595238Y5838095D01*
X2500000Y5933333D01*
X2452380Y6028571D01*
X2452380Y6219047D01*
X2500000Y6314285D01*
X2595238Y6409523D01*
X2785714Y6457142D01*
X3119047Y6457142D01*
X3309523Y6409523D01*
X3404761Y6314285D01*
X3452380Y6219047D01*
X3452380Y6028571D01*
X2547619Y6838095D02*
X2500000Y6885714D01*
X2452380Y6980952D01*
X2452380Y7219047D01*
X2500000Y7314285D01*
X2547619Y7361904D01*
X2642857Y7409523D01*
X2738095Y7409523D01*
X2880952Y7361904D01*
X3452380Y6790476D01*
X3452380Y7409523D01*
X3597619Y10204761D02*
X3550000Y10109523D01*
X3454761Y10014285D01*
X3311904Y9871428D01*
X3264285Y9776190D01*
X3264285Y9680952D01*
X3502380Y9728571D02*
X3454761Y9633333D01*
X3359523Y9538095D01*
X3169047Y9490476D01*
X2835714Y9490476D01*
X2645238Y9538095D01*
X2550000Y9633333D01*
X2502380Y9728571D01*
X2502380Y9919047D01*
X2550000Y10014285D01*
X2645238Y10109523D01*
X2835714Y10157142D01*
X3169047Y10157142D01*
X3359523Y10109523D01*
X3454761Y10014285D01*
X3502380Y9919047D01*
X3502380Y9728571D01*
X3502380Y11109523D02*
X3502380Y10538095D01*
X3502380Y10823809D02*
X2502380Y10823809D01*
X2645238Y10728571D01*
X2740476Y10633333D01*
X2788095Y10538095D01*
X22766666Y-20852380D02*
X22766666Y-21566666D01*
X22719047Y-21709523D01*
X22623809Y-21804761D01*
X22480952Y-21852380D01*
X22385714Y-21852380D01*
X23147619Y-20852380D02*
X23766666Y-20852380D01*
X23433333Y-21233333D01*
X23576190Y-21233333D01*
X23671428Y-21280952D01*
X23719047Y-21328571D01*
X23766666Y-21423809D01*
X23766666Y-21661904D01*
X23719047Y-21757142D01*
X23671428Y-21804761D01*
X23576190Y-21852380D01*
X23290476Y-21852380D01*
X23195238Y-21804761D01*
X23147619Y-21757142D01*
X19788095Y21797619D02*
X19788095Y22797619D01*
X19788095Y22321428D02*
X20359523Y22321428D01*
X20359523Y21797619D02*
X20359523Y22797619D01*
X20788095Y22702380D02*
X20835714Y22750000D01*
X20930952Y22797619D01*
X21169047Y22797619D01*
X21264285Y22750000D01*
X21311904Y22702380D01*
X21359523Y22607142D01*
X21359523Y22511904D01*
X21311904Y22369047D01*
X20740476Y21797619D01*
X21359523Y21797619D01*
X-21311904Y-16302380D02*
X-21311904Y-15302380D01*
X-21311904Y-15778571D02*
X-20740476Y-15778571D01*
X-20740476Y-16302380D02*
X-20740476Y-15302380D01*
X-19740476Y-16302380D02*
X-20311904Y-16302380D01*
X-20026190Y-16302380D02*
X-20026190Y-15302380D01*
X-20121428Y-15445238D01*
X-20216666Y-15540476D01*
X-20311904Y-15588095D01*
X-1947619Y-3838095D02*
X-2947619Y-3838095D01*
X-2947619Y-3600000D01*
X-2900000Y-3457142D01*
X-2804761Y-3361904D01*
X-2709523Y-3314285D01*
X-2519047Y-3266666D01*
X-2376190Y-3266666D01*
X-2185714Y-3314285D01*
X-2090476Y-3361904D01*
X-1995238Y-3457142D01*
X-1947619Y-3600000D01*
X-1947619Y-3838095D01*
X-2852380Y-2885714D02*
X-2900000Y-2838095D01*
X-2947619Y-2742857D01*
X-2947619Y-2504761D01*
X-2900000Y-2409523D01*
X-2852380Y-2361904D01*
X-2757142Y-2314285D01*
X-2661904Y-2314285D01*
X-2519047Y-2361904D01*
X-1947619Y-2933333D01*
X-1947619Y-2314285D01*
X4382380Y19924404D02*
X3382380Y19924404D01*
X3382380Y20162500D01*
X3430000Y20305357D01*
X3525238Y20400595D01*
X3620476Y20448214D01*
X3810952Y20495833D01*
X3953809Y20495833D01*
X4144285Y20448214D01*
X4239523Y20400595D01*
X4334761Y20305357D01*
X4382380Y20162500D01*
X4382380Y19924404D01*
X4382380Y21448214D02*
X4382380Y20876785D01*
X4382380Y21162500D02*
X3382380Y21162500D01*
X3525238Y21067261D01*
X3620476Y20972023D01*
X3668095Y20876785D01*
X9407142Y-1457142D02*
X9359523Y-1504761D01*
X9216666Y-1552380D01*
X9121428Y-1552380D01*
X8978571Y-1504761D01*
X8883333Y-1409523D01*
X8835714Y-1314285D01*
X8788095Y-1123809D01*
X8788095Y-980952D01*
X8835714Y-790476D01*
X8883333Y-695238D01*
X8978571Y-600000D01*
X9121428Y-552380D01*
X9216666Y-552380D01*
X9359523Y-600000D01*
X9407142Y-647619D01*
X10359523Y-1552380D02*
X9788095Y-1552380D01*
X10073809Y-1552380D02*
X10073809Y-552380D01*
X9978571Y-695238D01*
X9883333Y-790476D01*
X9788095Y-838095D01*
X11311904Y-1552380D02*
X10740476Y-1552380D01*
X11026190Y-1552380D02*
X11026190Y-552380D01*
X10930952Y-695238D01*
X10835714Y-790476D01*
X10740476Y-838095D01*
X5833333Y10892857D02*
X5785714Y10845238D01*
X5642857Y10797619D01*
X5547619Y10797619D01*
X5404761Y10845238D01*
X5309523Y10940476D01*
X5261904Y11035714D01*
X5214285Y11226190D01*
X5214285Y11369047D01*
X5261904Y11559523D01*
X5309523Y11654761D01*
X5404761Y11750000D01*
X5547619Y11797619D01*
X5642857Y11797619D01*
X5785714Y11750000D01*
X5833333Y11702380D01*
X6166666Y11797619D02*
X6833333Y11797619D01*
X6404761Y10797619D01*
X19883333Y-607142D02*
X19835714Y-654761D01*
X19692857Y-702380D01*
X19597619Y-702380D01*
X19454761Y-654761D01*
X19359523Y-559523D01*
X19311904Y-464285D01*
X19264285Y-273809D01*
X19264285Y-130952D01*
X19311904Y59523D01*
X19359523Y154761D01*
X19454761Y250000D01*
X19597619Y297619D01*
X19692857Y297619D01*
X19835714Y250000D01*
X19883333Y202380D01*
X20788095Y297619D02*
X20311904Y297619D01*
X20264285Y-178571D01*
X20311904Y-130952D01*
X20407142Y-83333D01*
X20645238Y-83333D01*
X20740476Y-130952D01*
X20788095Y-178571D01*
X20835714Y-273809D01*
X20835714Y-511904D01*
X20788095Y-607142D01*
X20740476Y-654761D01*
X20645238Y-702380D01*
X20407142Y-702380D01*
X20311904Y-654761D01*
X20264285Y-607142D01*
X16633333Y1242857D02*
X16585714Y1195238D01*
X16442857Y1147619D01*
X16347619Y1147619D01*
X16204761Y1195238D01*
X16109523Y1290476D01*
X16061904Y1385714D01*
X16014285Y1576190D01*
X16014285Y1719047D01*
X16061904Y1909523D01*
X16109523Y2004761D01*
X16204761Y2100000D01*
X16347619Y2147619D01*
X16442857Y2147619D01*
X16585714Y2100000D01*
X16633333Y2052380D01*
X17490476Y1814285D02*
X17490476Y1147619D01*
X17252380Y2195238D02*
X17014285Y1480952D01*
X17633333Y1480952D01*
X-5666666Y-14907142D02*
X-5714285Y-14954761D01*
X-5857142Y-15002380D01*
X-5952380Y-15002380D01*
X-6095238Y-14954761D01*
X-6190476Y-14859523D01*
X-6238095Y-14764285D01*
X-6285714Y-14573809D01*
X-6285714Y-14430952D01*
X-6238095Y-14240476D01*
X-6190476Y-14145238D01*
X-6095238Y-14050000D01*
X-5952380Y-14002380D01*
X-5857142Y-14002380D01*
X-5714285Y-14050000D01*
X-5666666Y-14097619D01*
X-5285714Y-14097619D02*
X-5238095Y-14050000D01*
X-5142857Y-14002380D01*
X-4904761Y-14002380D01*
X-4809523Y-14050000D01*
X-4761904Y-14097619D01*
X-4714285Y-14192857D01*
X-4714285Y-14288095D01*
X-4761904Y-14430952D01*
X-5333333Y-15002380D01*
X-4714285Y-15002380D01*
X-7516666Y-14907142D02*
X-7564285Y-14954761D01*
X-7707142Y-15002380D01*
X-7802380Y-15002380D01*
X-7945238Y-14954761D01*
X-8040476Y-14859523D01*
X-8088095Y-14764285D01*
X-8135714Y-14573809D01*
X-8135714Y-14430952D01*
X-8088095Y-14240476D01*
X-8040476Y-14145238D01*
X-7945238Y-14050000D01*
X-7802380Y-14002380D01*
X-7707142Y-14002380D01*
X-7564285Y-14050000D01*
X-7516666Y-14097619D01*
X-6564285Y-15002380D02*
X-7135714Y-15002380D01*
X-6850000Y-15002380D02*
X-6850000Y-14002380D01*
X-6945238Y-14145238D01*
X-7040476Y-14240476D01*
X-7135714Y-14288095D01*
M02*
